<svg viewBox="0 0 48 48" fill="none" xmlns="http://www.w3.org/2000/svg"><path d="M26.24 32.24l12.657 12.657 4.243-4.243-12.657-12.657-4.243 4.243z" fill="currentColor"/><path d="M33.4 30.9l-8.2 8.2c-.4.4-1.1.5-1.4.1l-7.9-7.9C7.6 23 4.2 9.3 4.2 4.3c0-.9 1.2-1.5 1.8-.9l27.4 27.5z" stroke="#031837" stroke-width="2" stroke-miterlimit="10" fill="transparent"/><path d="M33.4 30.9l-8.2 8.2c-.4.4-1.1.5-1.4.1l-7.9-7.9C7.6 23 4.2 9.3 4.2 4.3c0-.9 1.2-1.5 1.8-.9l27.4 27.5z" fill="currentColor"/><path d="M14.6 30.8C18 34.2 37 20.9 40.5 17.4c3.4-3.4 3.4-9 0-12.5-3.4-3.4-9-3.4-12.5 0S11.1 27.3 14.6 30.8z" stroke="#031837" stroke-width="4" stroke-miterlimit="10" fill="transparent"/><path d="M16.755 24.372L1.552 39.575l4.172 4.172 15.203-15.203-4.172-4.172z" stroke="#031837" stroke-width="2" stroke-miterlimit="10" fill="transparent"/><path d="M16.755 24.372L1.552 39.575l4.172 4.172 15.203-15.203-4.172-4.172z" fill="currentColor"/><path d="M14.6 30.8C18 34.2 37 20.9 40.5 17.4c3.4-3.4 3.4-9 0-12.5-3.4-3.4-9-3.4-12.5 0S11.1 27.3 14.6 30.8z" fill="#031837"/><path d="M14.6 30.8c-.5-.5 15.3-17.1 18.7-20.5 3.4-3.4 6.6-5.8 7.1-5.3" stroke="currentColor" stroke-miterlimit="10" fill="transparent"/><path d="M14.6 30.8c-2.5-2.5 11.7-20.6 15.2-24.1 3.4-3.4 8.2-4.2 10.7-1.8" stroke="currentColor" stroke-miterlimit="10" fill="transparent"/><path d="M14.6 30.8C13.1 29.3 28.1 12 31.5 8.5c3.4-3.4 7.4-5 8.9-3.6M14.6 30.8c.5.5 17.1-15.3 20.5-18.7 3.4-3.4 5.8-6.6 5.3-7.1" stroke="currentColor" stroke-miterlimit="10" fill="transparent"/><path d="M14.6 30.8c2.5 2.5 20.6-11.7 24.1-15.2 3.4-3.4 4.2-8.2 1.8-10.7" stroke="currentColor" stroke-miterlimit="10" fill="transparent"/><path d="M14.6 30.8c1.5 1.5 18.8-13.5 22.3-16.9 3.4-3.4 5-7.4 3.6-8.9" stroke="currentColor" stroke-miterlimit="10" fill="transparent"/><path d="M14.6 30.8C18 34.2 37 20.9 40.5 17.4c3.4-3.4 3.4-9 0-12.5-3.4-3.4-9-3.4-12.5 0S11.1 27.3 14.6 30.8z" stroke="currentColor" stroke-miterlimit="10" fill="transparent"/><path d="M14.4 26.5l4.4 4.4 5-1.9-7.4-7.5-2 5z" fill="currentColor"/></svg>