<svg viewBox="0 0 48 48" fill="none" xmlns="http://www.w3.org/2000/svg"><path d="M35.5 39.9c-1.2 0-2.3-.5-3.2-1.3l-24-24c-.8-.8-1.3-2-1.3-3.2 0-1.2.5-2.3 1.3-3.2.8-.8 2-1.3 3.2-1.3 1.2 0 2.3.5 3.2 1.3l24 24c1.7 1.7 1.7 4.6 0 6.3-.8.9-2 1.4-3.2 1.4z" fill="#031837"/><path d="M11.6 7.9c.9 0 1.8.3 2.5 1l24 24c1.4 1.4 1.4 3.6 0 4.9-.7.7-1.6 1-2.5 1-.9 0-1.8-.3-2.5-1l-24-24c-1.4-1.4-1.4-3.6 0-4.9.7-.6 1.6-1 2.5-1zm0-2c-1.5 0-2.8.6-3.9 1.6-2.1 2.1-2.1 5.6 0 7.8l24 24c1 1 2.4 1.6 3.9 1.6s2.8-.6 3.9-1.6c2.1-2.1 2.1-5.6 0-7.8l-24-24c-1.1-1-2.5-1.6-3.9-1.6z" fill="currentColor"/><path d="M36.9 43.8a7 7 0 100-14 7 7 0 000 14z" fill="#031837"/><path d="M36.9 30.7c3.3 0 6 2.7 6 6s-2.7 6-6 6-6-2.7-6-6 2.7-6 6-6zm0-2c-4.4 0-8 3.6-8 8s3.6 8 8 8 8-3.6 8-8-3.6-8-8-8z" fill="currentColor"/><path d="M36.5 39.4c-.8 0-1.6-.3-2.2-.9l-25-25c-1.2-1.2-1.2-3.1 0-4.3.6-.6 1.4-.9 2.2-.9.8 0 1.6.3 2.2.9l25 25c1.2 1.2 1.2 3.1 0 4.3-.6.6-1.3.9-2.2.9z" fill="currentColor"/><path d="M11.6 9.3c.5 0 1.1.2 1.5.6l25 25c.8.8.8 2.1 0 2.9-.4.4-.9.6-1.5.6s-1.1-.2-1.5-.6l-25-25c-.8-.8-.8-2.1 0-2.9.4-.4.9-.6 1.5-.6zm0-2c-1.1 0-2.1.4-2.9 1.2-1.6 1.6-1.6 4.2 0 5.8l25 25c.8.8 1.8 1.2 2.9 1.2 1.1 0 2.1-.4 2.9-1.2.8-.8 1.2-1.8 1.2-2.9 0-1.1-.4-2.1-1.2-2.9l-25-25c-.8-.8-1.9-1.2-2.9-1.2z" fill="#031837"/><path d="M36.9 42.3a5.5 5.5 0 100-11 5.5 5.5 0 000 11z" fill="currentColor"/><path d="M36.9 32.2c2.5 0 4.5 2 4.5 4.5s-2 4.5-4.5 4.5-4.5-2-4.5-4.5c0-2.4 2-4.5 4.5-4.5zm0-2c-3.6 0-6.5 2.9-6.5 6.5s2.9 6.5 6.5 6.5 6.5-2.9 6.5-6.5c0-3.5-2.9-6.5-6.5-6.5z" fill="#031837"/><path d="M35.1 37.8l-25-25c-.8-.8-.8-2.1 0-2.9.8-.8 2.1-.8 2.9 0l25 25c.8.8.8 2.1 0 2.9-.8.8-2.1.8-2.9 0z" fill="currentColor"/><path d="M36.9 41.3a4.5 4.5 0 100-9 4.5 4.5 0 000 9z" fill="currentColor"/><path d="M35.4 4.6c.4 0 .8.1 1.1.4l7.1 7.1c.6.6.6 1.6 0 2.2L15 42.9c-.3.3-.7.4-1.1.4-.4 0-.8-.1-1.1-.4l-7.1-7.1c-.6-.6-.6-1.6 0-2.2L34.2 5.1c.4-.3.8-.5 1.2-.5zm0-2c-.9 0-1.8.4-2.5 1L4.4 32.1c-1.4 1.4-1.4 3.6 0 5l7.1 7.1c.7.7 1.6 1 2.5 1 .9 0 1.8-.4 2.5-1L45 15.7c.7-.7 1-1.6 1-2.5 0-.9-.4-1.8-1-2.5l-7.1-7.1c-.7-.6-1.6-1-2.5-1z" fill="#031837"/><path d="M23 31.9c-.3 0-.5-.1-.7-.3L17 26.3c-.4-.4-.4-1.1 0-1.5l8.4-8.4c.2-.2.5-.3.7-.3.3 0 .5.1.7.3l5.3 5.3c.4.4.4 1.1 0 1.5l-8.4 8.4c-.1.1-.4.3-.7.3z" fill="currentColor"/><path d="M12.8 42.9l-7.1-7.1c-.6-.6-.6-1.6 0-2.2L34.2 5.1c.6-.6 1.6-.6 2.2 0l7.1 7.1c.6.6.6 1.6 0 2.2L15 42.9c-.6.6-1.6.6-2.2 0z" fill="currentColor"/><path d="M26.2 16.6c.1 0 .3.1.4.2l5.3 5.3c.2.2.2.5 0 .7l-8.4 8.4c-.1.1-.2.2-.4.2-.1 0-.3-.1-.4-.2l-5.3-5.3c-.1-.1-.2-.2-.2-.4s.1-.3.2-.4l8.4-8.4c.2 0 .3-.1.4-.1zm0-1c-.4 0-.8.1-1.1.4l-8.4 8.4c-.6.6-.6 1.6 0 2.2l5.3 5.3c.3.3.7.4 1.1.4.4 0 .8-.1 1.1-.4l8.4-8.4c.6-.6.6-1.6 0-2.2L27.3 16c-.3-.2-.7-.4-1.1-.4zM14.3 35.1a.8.8 0 100-1.6.8.8 0 000 1.6zM17.9 35.2a.8.8 0 100-1.6.8.8 0 000 1.6zM10.8 35a.8.8 0 100-1.6.8.8 0 000 1.6zM14.2 31.6a.8.8 0 100-1.6.8.8 0 000 1.6zM14.4 38.7a.8.8 0 100-1.6.8.8 0 000 1.6zM35 14.4a.8.8 0 100-1.6.8.8 0 000 1.6zM38.6 14.5a.8.8 0 100-1.6.8.8 0 000 1.6zM31.4 14.3a.8.8 0 100-1.6.8.8 0 000 1.6zM34.9 10.8a.8.8 0 100-1.6.8.8 0 000 1.6zM35.1 18a.8.8 0 100-1.6.8.8 0 000 1.6z" fill="#031837"/></svg>