<svg viewBox="0 0 48 48" fill="none" xmlns="http://www.w3.org/2000/svg"><g clip-path="url(#clip0)"><path d="M9.106 13.089l31.537 31.536 5.303-5.303L14.409 7.786l-5.303 5.303z" fill="#FFD029"/><path d="M7.5 24c-.4 0-.7-.1-1-.4l-2.8-2.8c-.6-.6-.6-1.5 0-2l2-2c.3-.3.6-.4 1-.4.2 0 .3 0 .5.1l-.8-.8c-.6-.6-.6-1.5 0-2l8.5-8.5 1.2-1.3C19.2.8 22.4.1 24.4.1c1.3 0 2.1.3 2.1.3l1.6.5-1.6.4s-3.3.9-4.5 3.5c-.8 1.6-.7 3.5.2 5.6.5.6.5 1.4-.1 1.9l-8.5 8.5c-.3.3-.6.4-1 .4s-.7-.1-1-.4l-.8-.8c.2.5.1 1.1-.3 1.5l-2 2c-.3.3-.6.5-1 .5z" fill="#031837"/><path d="M24.4.5c1.2 0 2 .2 2 .2s-8 2.1-4.6 9.9c.4.4.4.9 0 1.3l-8.5 8.5c-.2.2-.4.3-.7.3-.3 0-.5-.1-.7-.3l-1.1-1.1-.7.7c.3.4.3.9 0 1.2l-2 2c-.2.2-.4.3-.7.3-.3 0-.5-.1-.7-.3l-2.8-2.8c-.4-.4-.4-.9 0-1.3l2-2c.2-.2.4-.3.6-.3.2 0 .4.1.6.2l.7-.7-1.1-1.1c-.4-.4-.4-.9 0-1.3l8.5-8.5c.5-.5.5-.5 1.2-1.3 3.1-3 6.1-3.6 8-3.6zm0-1c-2.2 0-5.4.7-8.7 3.9l-.8.8-.5.5-8.5 8.5c-.7.7-.7 1.9 0 2.7-.3.1-.5.2-.7.5l-2 2c-.4.4-.6.8-.6 1.4 0 .5.2 1 .6 1.4L6 24c.4.4.8.6 1.4.6.5 0 1-.2 1.4-.6l2-2c.2-.2.4-.5.5-.7.4.3.8.5 1.3.5s1-.2 1.4-.6l8.5-8.5c.4-.4.6-.8.6-1.4 0-.4-.1-.8-.4-1.2-.8-2-.9-3.7-.2-5.1 1.2-2.4 4.2-3.2 4.2-3.2L30 .9l-3.2-1c-.2-.1-1.1-.4-2.4-.4z" fill="#031837"/><path d="M26.4.8s-4.9-1.6-9.9 3.4c-.7.7-.7.8-1.2 1.3L6.8 14c-.4.4-.4.9 0 1.3l1.1 1.1-.7.7c-.4-.3-.9-.3-1.2 0l-2 2c-.4.4-.4.9 0 1.3l2.8 2.8c.4.4.9.4 1.3 0l2-2c.3-.3.3-.9 0-1.2l.7-.7 1.1 1.1c.4.4.9.4 1.3 0l8.5-8.5c.4-.4.4-.9 0-1.3C18.4 2.9 26.4.8 26.4.8z" fill="#FFD029"/><path d="M38.3 4.8l8.1 8.1-34 34-8.1-8.1 34-34zm0-2.8l-1.4 1.4-34 34-1.4 1.4 1.4 1.4 8.1 8.1 1.4 1.4 1.4-1.4 34-34 1.4-1.4-1.4-1.4-8.1-8.1L38.3 2z" fill="#031837"/><path d="M38.329 4.869L4.317 38.88l8.132 8.132L46.46 13.001 38.33 4.869z" fill="#FFD029"/><path d="M40.701 12.186l-.707.707 2.192 2.192.707-.707-2.192-2.192zM35.044 17.904l-.707.707 2.192 2.192.707-.707-2.191-2.192zM36.18 13.335l-.708.707 3.96 3.96.707-.708-3.96-3.96zM29.388 23.622l-.707.707 2.192 2.192.707-.707-2.192-2.192zM30.452 18.982l-.707.707 3.96 3.96.707-.708-3.96-3.96zM23.73 29.198l-.706.707 2.192 2.192.707-.707-2.192-2.192zM24.866 24.629l-.707.707 3.96 3.96.706-.707-3.96-3.96zM12.417 40.492l-.707.707 2.192 2.192.707-.707-2.192-2.192zM18.074 34.916l-.707.707 2.192 2.192.707-.707-2.192-2.192zM19.209 30.346l-.707.708 3.96 3.96.707-.708-3.96-3.96zM13.481 35.994l-.707.707 3.96 3.96.707-.708-3.96-3.96z" fill="#031837" stroke="#031837" stroke-width=".25" stroke-miterlimit="10"/></g><defs><clipPath id="clip0"><path fill="#fff" transform="translate(.5)" d="M0 0h48v48H0z"/></clipPath></defs></svg>