<?xml version="1.0" encoding="UTF-8"?><!DOCTYPE svg PUBLIC "-//W3C//DTD SVG 1.1//EN" "http://www.w3.org/Graphics/SVG/1.1/DTD/svg11.dtd"><svg xmlns="http://www.w3.org/2000/svg" xmlns:xlink="http://www.w3.org/1999/xlink"><defs><clipPath id="clip0"><path fill="#fff" transform="translate(.5)" d="M0 0h48v48H0z"/></clipPath></defs><symbol id="option-wnyc-radio" viewBox="0 0 24 24"><rect x="1" y="1" width="22" height="22" rx="11" stroke="currentColor" stroke-width="2" fill="transparent"/><rect x="4" y="4" width="16" height="16" rx="8" fill="currentColor"/></symbol><symbol id="option-wnyc-checkbox" viewBox="0 0 24 24"><path stroke="currentColor" stroke-width="2" d="M1 1h22v22H1z"/><path d="M20 6L9 17l-5-5" fill="none"/></symbol><symbol id="logo-wnyc-standard" viewBox="0 0 305 28"><path d="M247 1.3l-.1 25.3h-7L230.3 15l-.1 11.5h-8.3l.1-25.3h7l9.6 11.6.1-11.5h8.3zM268.7 17.6v9.2h-8.5v-9.3l-9.5-16.1h9l5.1 8.8 5.3-8.7h8.3l-9.7 16.1zM285.6 25.7c-2.1-1.1-3.8-2.7-5-4.7-1.2-2-1.8-4.3-1.8-6.9 0-2.6.6-4.8 1.9-6.9 1.2-2 2.9-3.6 5.1-4.7C288 1.4 290.4.8 293 .8c2.5 0 4.7.5 6.6 1.3 1.9.9 3.5 2.1 4.8 3.8l-5.4 4.8c-1.6-2-3.4-3-5.5-3-1.8 0-3.2.6-4.3 1.7-1.1 1.1-1.6 2.7-1.6 4.6 0 1.9.5 3.5 1.6 4.6 1.1 1.2 2.5 1.7 4.3 1.7 2.1 0 4-1 5.6-2.9l5.4 4.8c-1.3 1.6-2.9 2.9-4.8 3.7-1.9.9-4.1 1.3-6.6 1.3-3 .2-5.4-.4-7.5-1.5z" fill="currentColor"/><path d="M40.6.4l-8.4 25.3h-6.3L20.4 8.4l-5.8 17.1H8.3L.1.2h6.1L11.8 18 17.9.2h5.4l5.7 18L35 .3l5.6.1zM50.9 24.5c-2.1-1.1-3.8-2.7-4.9-4.7-1.2-2-1.8-4.2-1.8-6.7s.6-4.7 1.8-6.7c1.2-2 2.9-3.5 5-4.7C53.1.5 55.5 0 58.1 0c2.6 0 5 .6 7.1 1.7 2.1 1.1 3.7 2.7 4.9 4.7 1.2 2 1.8 4.2 1.8 6.7s-.6 4.7-1.8 6.7c-1.2 2-2.9 3.5-5 4.7-2.1 1.1-4.5 1.7-7.1 1.7-2.7 0-5-.6-7.1-1.7zm11.2-4.3c1.2-.7 2.2-1.6 2.9-2.9.7-1.2 1-2.6 1.1-4.2.1-1.6-.3-3-1-4.2-.7-1.2-1.6-2.2-2.8-2.9-1.2-.7-2.6-1-4.1-1.1-1.5 0-2.8.3-4.1 1-1.2.7-2.2 1.6-2.9 2.9-.7 1.2-1 2.6-1.1 4.2 0 1.6.3 3 1 4.2.7 1.2 1.6 2.2 2.8 2.9 1.2.7 2.6 1 4 1 1.6.1 2.9-.2 4.2-.9zM94.6 25.9l-4.9-7.1H84.3v7.1h-5.9L78.5.6h11c2.2 0 4.2.4 5.8 1.1 1.6.8 2.9 1.8 3.8 3.2.9 1.4 1.3 3 1.3 4.9 0 1.9-.5 3.5-1.4 4.9-.9 1.4-2.2 2.4-3.9 3.1l5.6 8.2-6.1-.1zM93.2 6.5c-.9-.8-2.3-1.2-4-1.2h-4.8v8.8h4.8c1.8 0 3.1-.4 4-1.1.9-.8 1.4-1.9 1.4-3.3-.1-1.3-.5-2.4-1.4-3.2zM117.7 16.1l-3.4 3.5V26h-5.8l.1-25.3h5.8l-.1 11.8L125.6.7h6.5L121.5 12l11.1 14.1h-6.8l-8.1-10zM139.5.8h5.9l-.1 25.3h-5.9l.1-25.3zM177.9 1l-.1 25.3H173l-12.6-15.4-.1 15.4h-5.8l.1-25.3h4.9L172 16.4l.2-15.4h5.7zM203.8 13.4h5.4v10.3c-1.4 1-3 1.8-4.8 2.4-1.8.6-3.6.8-5.5.8-2.6 0-5-.6-7.1-1.7-2.1-1.1-3.7-2.7-4.9-4.7-1.2-2-1.8-4.2-1.8-6.8 0-2.6.6-4.8 1.8-6.7 1.2-2 2.9-3.5 5-4.6 2.1-1.1 4.5-1.7 7.2-1.7 2.2 0 4.2.4 6 1.1 1.8.8 3.3 1.8 4.5 3.3l-3.8 3.5c-1.8-1.9-4-2.9-6.5-2.9-1.6 0-3.1.3-4.3 1-1.3.7-2.2 1.6-2.9 2.8-.7 1.2-1.1 2.6-1.1 4.2s.3 3 1 4.2c.7 1.2 1.7 2.2 2.9 2.9 1.2.7 2.7 1 4.2 1.1 1.7 0 3.2-.3 4.6-1.1l.1-7.4z"/></symbol><symbol id="logo-wnyc-stacked" viewBox="0 0 211 61"><path d="M150.9 34.6l-.1 25.3h-7l-9.6-11.6-.1 11.5h-8.3l.1-25.3h7l9.6 11.6.1-11.5h8.3zM173.6 50.8V60h-8.5v-9.3l-9.5-16.1h9l5.1 8.8 5.3-8.7h8.3l-9.7 16.1zM191.5 59c-2.1-1.1-3.8-2.7-5-4.7-1.2-2-1.8-4.3-1.8-6.9 0-2.6.6-4.8 1.9-6.9 1.2-2 2.9-3.6 5.1-4.7 2.2-1.1 4.6-1.7 7.2-1.7 2.5 0 4.7.5 6.6 1.3 1.9.9 3.5 2.1 4.8 3.8l-5.4 4.8c-1.6-2-3.4-3-5.5-3-1.8 0-3.2.6-4.3 1.7-1.1 1.1-1.6 2.7-1.6 4.6 0 1.9.5 3.5 1.6 4.6 1.1 1.2 2.5 1.7 4.3 1.7 2.1 0 4-1 5.6-2.9l5.4 4.8c-1.3 1.6-2.9 2.9-4.8 3.7-1.9.9-4.1 1.3-6.6 1.3-2.9.2-5.3-.4-7.5-1.5z" fill="currentColor"/><path d="M40.6.6l-8.4 25.3h-6.3L20.4 8.7l-5.8 17.1H8.3L.1.4h6.1l5.6 17.8L17.9.4h5.4l5.7 18L35 .5l5.6.1zM50.9 24.7C48.8 23.6 47.1 22 46 20c-1.2-2-1.8-4.2-1.8-6.7s.6-4.7 1.8-6.7c1.2-2 2.9-3.5 5-4.7C53.1.8 55.5.2 58.1.2c2.6 0 5 .6 7.1 1.7 2.1 1.1 3.7 2.7 4.9 4.7 1.2 2 1.8 4.2 1.8 6.7s-.6 4.7-1.8 6.7c-1.2 2-2.9 3.5-5 4.7-2.1 1.1-4.5 1.7-7.1 1.7-2.6 0-5-.5-7.1-1.7zm11.2-4.3c1.2-.7 2.2-1.6 2.9-2.9.7-1.2 1-2.6 1.1-4.2.1-1.6-.3-3-1-4.2-.7-1.2-1.6-2.2-2.8-2.9-1.2-.7-2.6-1-4.1-1.1-1.5 0-2.8.3-4.1 1-1.2.7-2.2 1.6-2.9 2.9-.7 1.2-1 2.6-1.1 4.2 0 1.6.3 3 1 4.2.7 1.2 1.6 2.2 2.8 2.9 1.2.7 2.6 1 4 1 1.7.2 3-.2 4.2-.9zM94.6 26.2l-4.9-7.1H84.3v7.1h-5.9L78.5.9h11c2.2 0 4.2.4 5.8 1.1 1.6.8 2.9 1.8 3.8 3.2.9 1.4 1.3 3 1.3 4.9 0 1.9-.5 3.5-1.4 4.9-.9 1.4-2.2 2.4-3.9 3.1l5.6 8.2-6.1-.1zM93.2 6.8c-.9-.8-2.3-1.2-4-1.2h-4.8v8.8h4.8c1.8 0 3.1-.4 4-1.1.9-.8 1.4-1.9 1.4-3.3s-.4-2.5-1.4-3.2zM117.6 16.3l-3.4 3.5v6.4h-5.8l.1-25.3h5.8l-.1 11.8L125.5.9h6.5l-10.5 11.2 11.1 14.1h-6.8l-8.2-9.9zM139.5 1.1h5.9l-.1 25.3h-5.9l.1-25.3zM177.9 1.2l-.1 25.3H173l-12.6-15.4-.1 15.4h-5.8l.1-25.3h4.9L172 16.6l.1-15.4h5.8zM203.7 13.6h5.4v10.3c-1.4 1-3 1.8-4.8 2.4-1.8.6-3.6.8-5.5.8-2.6 0-5-.6-7.1-1.7-2.1-1.1-3.7-2.7-4.9-4.7-1.2-2-1.8-4.2-1.8-6.8 0-2.6.6-4.8 1.8-6.7 1.2-2 2.9-3.5 5-4.6 2.1-1.1 4.5-1.7 7.2-1.7 2.2 0 4.2.4 6 1.1 1.8.8 3.3 1.8 4.5 3.3l-3.8 3.5c-1.8-1.9-4-2.9-6.5-2.9-1.6 0-3.1.3-4.3 1-1.3.7-2.2 1.6-2.9 2.8-.7 1.2-1.1 2.6-1.1 4.2s.3 3 1 4.2c.7 1.2 1.7 2.2 2.9 2.9 1.2.7 2.7 1 4.2 1.1 1.7 0 3.2-.3 4.6-1.1l.1-7.4z"/></symbol><symbol id="logo-nyco-secondary" viewBox="0 0 694 76"><g fill="currentColor" fill-rule="nonzero"><path d="M233.11 1.21c18.54 0 29.14 13.66 29.14 30.79s-10.6 30.8-29.14 30.8S204 49.14 204 32s10.57-30.79 29.11-30.79zm0 48.34c9.93 0 13.74-8.69 13.74-17.55 0-8.86-3.85-17.55-13.74-17.55s-13.74 8.7-13.74 17.55c0 8.85 3.81 17.55 13.74 17.55zM269.19 18.59h13.41v5h.17a13.54 13.54 0 0111.84-6.21c13.49 0 19.2 11.51 19.2 23.67 0 11.18-6 21.77-18.13 21.77a14.49 14.49 0 01-12.25-5.88h-.17V76h-14.07V18.59zm13.57 21c0 7.53 2.15 12.42 8.53 12.42 6.21 0 8.44-6.54 8.44-12.42 0-5.46-2.07-11.51-8.36-11.51-3.72.03-8.6 2.6-8.6 11.54l-.01-.03zM320.5 18.59h13.41v5h.17a13.54 13.54 0 0111.84-6.21c13.49 0 19.2 11.51 19.2 23.67 0 11.18-6 21.77-18.13 21.77a14.48 14.48 0 01-12.25-5.88h-.17V76H320.5V18.59zm13.57 21c0 7.53 2.15 12.42 8.53 12.42 6.21 0 8.44-6.54 8.44-12.42 0-5.46-2.07-11.51-8.36-11.51-3.68.03-8.6 2.6-8.6 11.54l-.01-.03zM392.34 17.35c13.33 0 22.68 9.85 22.68 22.76 0 12.91-9.35 22.69-22.68 22.69s-22.6-9.77-22.6-22.68 9.26-22.77 22.6-22.77zm0 34.68C399 52 401 45.66 401 40.12s-2-12-8.61-12c-6.61 0-8.53 6.54-8.53 12S385.8 52 392.34 52v.03zM420 18.59h13.66v7.53h.17c2.07-5.55 6.87-8.36 12.91-8.36a15 15 0 013.31.33v12.84a17.35 17.35 0 00-5.38-.83c-7 0-10.6 4.8-10.6 10.18v21.27H420V18.59zM484 27.7h-8.69v19.53c0 3.39 2 4.14 5 4.14 1.24 0 2.4-.17 3.64-.17v10.35c-2.57.08-5.13.41-7.7.41-12 0-15.07-3.56-15.07-15.15V27.7h-7.12v-9.11h7.12v-13h14.07v13H484v9.11zM533.79 61.55h-13.66v-5.87H520a15.83 15.83 0 01-13.08 7.12c-12.37 0-15.92-7.12-15.92-18.38V18.59h14.07v24.92c0 5.71 2.4 7.7 7 7.7 3 0 7.7-2 7.7-9.6v-23h14.07l-.05 42.94zM543.21 18.59h13.66v5.88h.13c2.65-4.39 8.36-7.12 13.49-7.12C584.85 17.35 586 27.78 586 34v27.55h-14.06V36.47c0-4.14-1.41-7.53-7-7.53-5.3 0-7.61 4.55-7.61 9.19v23.42h-14.12V18.59zM609.09 13.21H595V2.45h14.07l.02 10.76zM595 18.59h14.07v43H595v-43zM644.93 27.7h-8.69v19.53c0 3.39 2 4.14 5 4.14 1.24 0 2.4-.17 3.64-.17v10.35c-2.57.08-5.13.41-7.7.41-12 0-15.07-3.56-15.07-15.15V27.7H615v-9.11h7.12v-13h14.07v13h8.69l.05 9.11zM676.71 65.36c-3.31 9.44-8.53 10.6-18 10.6h-6.62V64.53H657c3.23 0 5.63-1.82 5.63-4.8 0-2.32-2.73-8.94-3.56-11.26L648 18.59h14.9l8.11 28h.17l8.11-28h14.4l-16.98 46.77zM187.9 27.18l4-3.77V11.96L179.92.52h-39.91l-11.97 11.44V4.33L124.05.52h-15.97l-3.99 3.81v7.63l-7.98 7.63-7.98-7.63V4.33l-4-3.81H68.17l-3.99 3.81L60.19.52H44.22l-3.99 3.81v15.26L20.28.52H4.31L.32 4.33v53.41l3.99 3.82h15.97l3.99-3.82V42.48l19.95 19.08h15.97l3.99-3.82V27.22L84.13 46.3v11.44l4 3.82h15.96l3.99-3.82V46.3l19.96-19.08v22.89l11.97 11.45h39.91l11.98-11.45V38.66l-4-3.81h-19.95v3.81h-15.96V23.41h15.96v3.77z"/></g></symbol><symbol id="logo-nyc" viewBox="0 0 350 117"><path d="M327.9 0H255l-21.8 21.9v72.8l21.8 21.9h72.9l21.8-21.9V72.9l-7.2-7.3H306v7.3h-29.1V43.7H306v7.2h36.5l7.2-7.2V21.9L327.9 0zM109.3 0H80.1l-7.2 7.3v29.1L36.4 0H7.3L0 7.3v102l7.3 7.3h29.1l7.3-7.3V80.1l36.4 36.5h29.2l7.3-7.3V7.3L109.3 0zm51 116.6h29.1l7.3-7.3V87.4L233.2 51V7.3L225.9 0h-29.2l-7.3 7.3v14.6l-14.5 14.5-14.6-14.5V7.3L153 0h-29.1l-7.3 7.3V51L153 87.4v21.9l7.3 7.3z" fill="currentColor" fill-rule="nonzero"/></symbol><symbol id="icon-wnyc-ui-x" viewBox="0 0 24 24"><path d="M18 6L6 18M6 6l12 12"/></symbol><symbol id="icon-wnyc-ui-x-circle" viewBox="0 0 24 24"><circle cx="12" cy="12" r="10"/><path d="M15 9l-6 6M9 9l6 6"/></symbol><symbol id="icon-wnyc-ui-user-check" viewBox="0 0 24 24"><path d="M16 21v-2a4 4 0 00-4-4H5a4 4 0 00-4 4v2"/><circle cx="8.5" cy="7" r="4"/><path d="M17 11l2 2 4-4"/></symbol><symbol id="icon-wnyc-ui-twitter" viewBox="0 0 24 24"><path d="M23 3a10.9 10.9 0 01-3.14 1.53 4.48 4.48 0 00-7.86 3v1A10.66 10.66 0 013 4s-4 9 5 13a11.64 11.64 0 01-7 2c9 5 20 0 20-11.5a4.5 4.5 0 00-.08-.83A7.72 7.72 0 0023 3z"/></symbol><symbol id="icon-wnyc-ui-translate" viewBox="0 0 24 24"><path d="M3 16c1.5-.833 5-3.5 7-6.5S11.5 4 11.5 4m3 0h-6m-6 0h6m0 0V2.5M4.5 7c1 3 3 5.5 5.5 7.5m2 6.5l1.35-3M21 21l-1.35-3m-6.3 0l3.15-7.5c1.23 2.734 1.92 4.766 3.15 7.5m-6.3 0h6.3"/></symbol><symbol id="icon-wnyc-ui-thumbs-up" viewBox="0 0 24 24"><path d="M14 9V5a3 3 0 00-3-3l-4 9v11h11.28a2 2 0 002-1.7l1.38-9a2 2 0 00-2-2.3zM7 22H4a2 2 0 01-2-2v-7a2 2 0 012-2h3"/></symbol><symbol id="icon-wnyc-ui-thumbs-down" viewBox="0 0 24 24"><path d="M10 15v4a3 3 0 003 3l4-9V2H5.72a2 2 0 00-2 1.7l-1.38 9a2 2 0 002 2.3zm7-13h2.67A2.31 2.31 0 0122 4v7a2.31 2.31 0 01-2.33 2H17"/></symbol><symbol id="icon-wnyc-ui-sliders" viewBox="0 0 24 24"><path d="M4 21v-7M4 10V3M12 21v-9M12 8V3M20 21v-5M20 12V3M1 14h6M9 8h6M17 16h6"/></symbol><symbol id="icon-wnyc-ui-share" viewBox="0 0 24 24"><path d="M4 12v8a2 2 0 002 2h12a2 2 0 002-2v-8M16 6l-4-4-4 4M12 2v13"/></symbol><symbol id="icon-wnyc-ui-share-2" viewBox="0 0 24 24"><circle cx="18" cy="5" r="3"/><circle cx="6" cy="12" r="3"/><circle cx="18" cy="19" r="3"/><path d="M8.59 13.51l6.83 3.98M15.41 6.51l-6.82 3.98"/></symbol><symbol id="icon-wnyc-ui-settings" viewBox="0 0 24 24"><circle cx="12" cy="12" r="3"/><path d="M19.4 15a1.65 1.65 0 00.33 1.82l.06.06a2 2 0 010 2.83 2 2 0 01-2.83 0l-.06-.06a1.65 1.65 0 00-1.82-.33 1.65 1.65 0 00-1 1.51V21a2 2 0 01-2 2 2 2 0 01-2-2v-.09A1.65 1.65 0 009 19.4a1.65 1.65 0 00-1.82.33l-.06.06a2 2 0 01-2.83 0 2 2 0 010-2.83l.06-.06a1.65 1.65 0 00.33-1.82 1.65 1.65 0 00-1.51-1H3a2 2 0 01-2-2 2 2 0 012-2h.09A1.65 1.65 0 004.6 9a1.65 1.65 0 00-.33-1.82l-.06-.06a2 2 0 010-2.83 2 2 0 012.83 0l.06.06a1.65 1.65 0 001.82.33H9a1.65 1.65 0 001-1.51V3a2 2 0 012-2 2 2 0 012 2v.09a1.65 1.65 0 001 1.51 1.65 1.65 0 001.82-.33l.06-.06a2 2 0 012.83 0 2 2 0 010 2.83l-.06.06a1.65 1.65 0 00-.33 1.82V9a1.65 1.65 0 001.51 1H21a2 2 0 012 2 2 2 0 01-2 2h-.09a1.65 1.65 0 00-1.51 1z"/></symbol><symbol id="icon-wnyc-ui-send" viewBox="0 0 24 24"><path d="M22 2L11 13M22 2l-7 20-4-9-9-4 20-7z"/></symbol><symbol id="icon-wnyc-ui-search" viewBox="0 0 24 24"><circle cx="11" cy="11" r="8"/><path d="M21 21l-4.35-4.35"/></symbol><symbol id="icon-wnyc-ui-rss" viewBox="0 0 24 24"><path d="M4 11a9 9 0 019 9M4 4a16 16 0 0116 16"/><circle cx="5" cy="19" r="1"/></symbol><symbol id="icon-wnyc-ui-printer" viewBox="0 0 24 24"><path d="M6 9V2h12v7M6 18H4a2 2 0 01-2-2v-5a2 2 0 012-2h16a2 2 0 012 2v5a2 2 0 01-2 2h-2"/><path d="M6 14h12v8H6z"/></symbol><symbol id="icon-wnyc-ui-plus-circle" viewBox="0 0 24 24"><circle cx="12" cy="12" r="10"/><path d="M12 8v8M8 12h8"/></symbol><symbol id="icon-wnyc-ui-package" viewBox="0 0 24 24"><path d="M16.5 9.4l-9-5.19M21 16V8a2 2 0 00-1-1.73l-7-4a2 2 0 00-2 0l-7 4A2 2 0 003 8v8a2 2 0 001 1.73l7 4a2 2 0 002 0l7-4A2 2 0 0021 16z"/><path d="M3.27 6.96L12 12.01l8.73-5.05M12 22.08V12"/></symbol><symbol id="icon-wnyc-ui-navigation" viewBox="0 0 24 24"><path d="M3 11l19-9-9 19-2-8-8-2z"/></symbol><symbol id="icon-wnyc-ui-more-horizontal" viewBox="0 0 24 24"><circle cx="12" cy="12" r="1"/><circle cx="19" cy="12" r="1"/><circle cx="5" cy="12" r="1"/></symbol><symbol id="icon-wnyc-ui-minus-circle" viewBox="0 0 24 24"><circle cx="12" cy="12" r="10"/><path d="M8 12h8"/></symbol><symbol id="icon-wnyc-ui-message-circle" viewBox="0 0 24 24"><path d="M21 11.5a8.38 8.38 0 01-.9 3.8 8.5 8.5 0 01-7.6 4.7 8.38 8.38 0 01-3.8-.9L3 21l1.9-5.7a8.38 8.38 0 01-.9-3.8 8.5 8.5 0 014.7-7.6 8.38 8.38 0 013.8-.9h.5a8.48 8.48 0 018 8v.5z"/></symbol><symbol id="icon-wnyc-ui-menu" viewBox="0 0 24 24"><path d="M3 12h18M3 6h18M3 18h18"/></symbol><symbol id="icon-wnyc-ui-mail" viewBox="0 0 24 24"><path d="M4 4h16c1.1 0 2 .9 2 2v12c0 1.1-.9 2-2 2H4c-1.1 0-2-.9-2-2V6c0-1.1.9-2 2-2z"/><path d="M22 6l-10 7L2 6"/></symbol><symbol id="icon-wnyc-ui-info" viewBox="0 0 24 24"><circle cx="12" cy="12" r="10"/><path d="M12 16v-4M12 8h0"/></symbol><symbol id="icon-wnyc-ui-hard-drive" viewBox="0 0 24 24"><path d="M22 12H2M5.45 5.11L2 12v6a2 2 0 002 2h16a2 2 0 002-2v-6l-3.45-6.89A2 2 0 0016.76 4H7.24a2 2 0 00-1.79 1.11zM6 16h.01M10 16h.01"/></symbol><symbol id="icon-wnyc-ui-github" viewBox="0 0 24 24"><path d="M9 19c-5 1.5-5-2.5-7-3m14 6v-3.87a3.37 3.37 0 00-.94-2.61c3.14-.35 6.44-1.54 6.44-7A5.44 5.44 0 0020 4.77 5.07 5.07 0 0019.91 1S18.73.65 16 2.48a13.38 13.38 0 00-7 0C6.27.65 5.09 1 5.09 1A5.07 5.07 0 005 4.77a5.44 5.44 0 00-1.5 3.78c0 5.42 3.3 6.61 6.44 7A3.37 3.37 0 009 18.13V22"/></symbol><symbol id="icon-wnyc-ui-figma" viewBox="0 0 24 24"><path d="M5 5.5A3.5 3.5 0 018.5 2H12v7H8.5A3.5 3.5 0 015 5.5zM12 2h3.5a3.5 3.5 0 110 7H12V2z"/><path d="M12 12.5a3.5 3.5 0 117 0 3.5 3.5 0 11-7 0zM5 19.5A3.5 3.5 0 018.5 16H12v3.5a3.5 3.5 0 11-7 0zM5 12.5A3.5 3.5 0 018.5 9H12v7H8.5A3.5 3.5 0 015 12.5z"/></symbol><symbol id="icon-wnyc-ui-facebook" viewBox="0 0 24 24"><path d="M18 2h-3a5 5 0 00-5 5v3H7v4h3v8h4v-8h3l1-4h-4V7a1 1 0 011-1h3z"/></symbol><symbol id="icon-wnyc-ui-external-link" viewBox="0 0 24 24"><path d="M18 13v6a2 2 0 01-2 2H5a2 2 0 01-2-2V8a2 2 0 012-2h6M15 3h6v6M10 14L21 3"/></symbol><symbol id="icon-wnyc-ui-copy" viewBox="0 0 24 24"><rect x="9" y="9" width="13" height="13" rx="2" ry="2"/><path d="M5 15H4a2 2 0 01-2-2V4a2 2 0 012-2h9a2 2 0 012 2v1"/></symbol><symbol id="icon-wnyc-ui-chevron-up" viewBox="0 0 24 24"><path d="M18 15l-6-6-6 6"/></symbol><symbol id="icon-wnyc-ui-chevron-right" viewBox="0 0 24 24"><path d="M9 18l6-6-6-6"/></symbol><symbol id="icon-wnyc-ui-chevron-left" viewBox="0 0 24 24"><path d="M15 18l-6-6 6-6"/></symbol><symbol id="icon-wnyc-ui-chevron-down" viewBox="0 0 24 24"><path d="M6 9l6 6 6-6"/></symbol><symbol id="icon-wnyc-ui-check" viewBox="0 0 24 24"><path d="M20 6L9 17l-5-5"/></symbol><symbol id="icon-wnyc-ui-check-square" viewBox="0 0 24 24"><path d="M9 11l3 3L22 4"/><path d="M21 12v7a2 2 0 01-2 2H5a2 2 0 01-2-2V5a2 2 0 012-2h11"/></symbol><symbol id="icon-wnyc-ui-check-circle" viewBox="0 0 24 24"><path d="M22 11.08V12a10 10 0 11-5.93-9.14"/><path d="M22 4L12 14.01l-3-3"/></symbol><symbol id="icon-wnyc-ui-calendar" viewBox="0 0 24 24"><rect x="3" y="4" width="18" height="18" rx="2" ry="2"/><path d="M16 2v4M8 2v4M3 10h18"/></symbol><symbol id="icon-wnyc-ui-bookmark" viewBox="0 0 24 24"><path d="M19 21l-7-5-7 5V5a2 2 0 012-2h10a2 2 0 012 2z"/></symbol><symbol id="icon-wnyc-ui-bell" viewBox="0 0 24 24"><path d="M18 8A6 6 0 006 8c0 7-3 9-3 9h18s-3-2-3-9M13.73 21a2 2 0 01-3.46 0"/></symbol><symbol id="icon-wnyc-ui-award" viewBox="0 0 24 24"><circle cx="12" cy="8" r="7"/><path d="M8.21 13.89L7 23l5-3 5 3-1.21-9.12"/></symbol><symbol id="icon-wnyc-ui-arrow-right" viewBox="0 0 24 24"><path d="M5 12h14M12 5l7 7-7 7"/></symbol><symbol id="icon-wnyc-ui-arrow-left" viewBox="0 0 24 24"><path d="M19 12H5M12 19l-7-7 7-7"/></symbol><symbol id="icon-wnyc-ui-alert-triangle" viewBox="0 0 24 24"><path d="M10.29 3.86L1.82 18a2 2 0 001.71 3h16.94a2 2 0 001.71-3L13.71 3.86a2 2 0 00-3.42 0zM12 9v4M12 17h0"/></symbol><symbol id="icon-wnyc-ui-alert-octagon" viewBox="0 0 24 24"><path d="M7.86 2h8.28L22 7.86v8.28L16.14 22H7.86L2 16.14V7.86L7.86 2zM12 8v4M12 16h0"/></symbol><symbol id="icon-wnyc-dash"><path fill="currentColor" d="M0 7h16v1H0z"/></symbol><symbol id="icon-wnyc-accessible" viewBox="0 0 24 24"><path d="M20.089 10.975a1.31 1.31 0 00-1.009-.393l-4.557.254 2.508-2.857c.357-.406.46-.949.321-1.434a1.301 1.301 0 00-.583-.827c-.01-.007-5.995-3.484-5.995-3.484a1.307 1.307 0 00-1.527.155L6.324 4.997a1.307 1.307 0 101.74 1.95l2.216-1.976 1.833 1.064-3.235 3.684a6.665 6.665 0 00-3.495 1.728l1.689 1.689a4.281 4.281 0 012.888-1.118 4.303 4.303 0 014.298 4.297 4.281 4.281 0 01-1.118 2.889l1.69 1.69a6.659 6.659 0 001.815-4.578 6.657 6.657 0 00-.681-2.942l1.764-.098-.429 5.263a1.307 1.307 0 102.605.213l.551-6.758a1.307 1.307 0 00-.366-1.019zM17.668 5.376a2.188 2.188 0 100-4.376 2.188 2.188 0 000 4.376zM9.96 20.613a4.303 4.303 0 01-4.297-4.297c0-.894.274-1.724.742-2.412l-1.707-1.707a6.684 6.684 0 009.381 9.382l-1.707-1.708a4.273 4.273 0 01-2.411.742z" fill="currentColor"/></symbol><symbol id="category-wnyc-technology" viewBox="0 0 48 48"><path d="M39.9 27.8L23.1 11.1c-.9-.9-2.1-1.3-3.4-1.3H8.3" stroke="#3194E0" stroke-width="2" stroke-miterlimit="10"/><path d="M39.3 38.8L9.7 9.2" stroke="#3194E0" stroke-width="3" stroke-miterlimit="10"/><path d="M10.4 13.9c-1.1 0-2.1-.4-2.9-1.2-.8-.8-1.2-1.8-1.2-2.8 0-1.1.4-2.1 1.2-2.8.8-.8 1.8-1.2 2.8-1.2 1.1 0 2.1.4 2.9 1.2.8.8 1.2 1.8 1.2 2.8 0 1.1-.4 2.1-1.2 2.8-.8.8-1.8 1.2-2.8 1.2z" fill="#031837"/><path d="M10.4 7.3c.7 0 1.3.3 1.8.7.5.5.7 1.1.7 1.8s-.3 1.3-.7 1.8c-.5.5-1.1.7-1.8.7s-1.3-.3-1.8-.7c-.5-.5-.7-1.1-.7-1.8s.3-1.3.7-1.8c.5-.4 1.1-.7 1.8-.7zm0-3c-1.4 0-2.8.5-3.9 1.6-2.2 2.2-2.2 5.7 0 7.8 1.1 1.1 2.5 1.6 3.9 1.6s2.8-.5 3.9-1.6c2.2-2.2 2.2-5.7 0-7.8-1.1-1-2.5-1.6-3.9-1.6z" fill="#3194E0"/><path d="M10.5 22.1l15.6 15.4c.9.9 2.1 1.3 3.4 1.3h11.4" stroke="#3194E0" stroke-width="2" stroke-miterlimit="10"/><path d="M39.3 42.9c-1.1 0-2.1-.4-2.9-1.2-.8-.8-1.2-1.8-1.2-2.8 0-1.1.4-2.1 1.2-2.8.8-.8 1.8-1.2 2.8-1.2 1.1 0 2.1.4 2.9 1.2.8.8 1.2 1.8 1.2 2.8 0 1.1-.4 2.1-1.2 2.8-.8.8-1.8 1.2-2.8 1.2z" fill="#031837"/><path d="M39.3 36.3c.7 0 1.3.3 1.8.7 1 1 1 2.6 0 3.6-.5.5-1.1.7-1.8.7s-1.3-.3-1.8-.7c-1-1-1-2.6 0-3.6.5-.4 1.1-.7 1.8-.7zm0-3c-1.4 0-2.8.5-3.9 1.6-2.2 2.2-2.2 5.7 0 7.8 1.1 1.1 2.5 1.6 3.9 1.6s2.8-.5 3.9-1.6c2.2-2.2 2.2-5.7 0-7.8-1.1-1-2.5-1.6-3.9-1.6z" fill="#3194E0"/><path d="M37.7 5.2l5.6 5.6-30.7 30.7L5.5 43 7 35.9 37.7 5.2zm0-2.8l-1.4 1.4L5.6 34.5l-.4.4-.1.6-1.5 7.1-.6 3 3-.6 7.1-1.5.6-.1.3-.4 30.7-30.7 1.4-1.4-1.4-1.4-5.6-5.6-1.4-1.5z" fill="#031837"/><path d="M6.9 35.9L37.7 5.2l5.6 5.7-30.7 30.7-7.1 1.5 1.4-7.2z" fill="#3194E0"/><path d="M7.6 36.6l4.3 4.3-5.4 1.2 1.1-5.5zM37.2 28.2c-.8 0-1.6-.3-2.1-.9-.6-.6-.9-1.3-.9-2.1s.3-1.6.9-2.1c.6-.6 1.3-.9 2.1-.9s1.6.3 2.1.9c.6.6.9 1.3.9 2.1s-.3 1.6-.9 2.1c-.5.6-1.3.9-2.1.9z" fill="#031837"/><path d="M37.2 23.2c.5 0 1 .2 1.4.6.8.8.8 2 0 2.8-.4.4-.9.6-1.4.6-.5 0-1-.2-1.4-.6-.4-.4-.6-.9-.6-1.4 0-.5.2-1 .6-1.4.4-.4.9-.6 1.4-.6zm0-2c-1 0-2 .4-2.8 1.2-1.6 1.6-1.6 4.1 0 5.7.8.8 1.8 1.2 2.8 1.2 1 0 2-.4 2.8-1.2 1.6-1.6 1.6-4.1 0-5.7-.7-.8-1.8-1.2-2.8-1.2z" fill="#3194E0"/><path d="M11.5 26.1c-.8 0-1.6-.3-2.1-.9-.6-.6-.9-1.3-.9-2.1s.3-1.6.9-2.1c.6-.6 1.3-.9 2.1-.9s1.6.3 2.1.9c1.2 1.2 1.2 3.1 0 4.2-.5.6-1.3.9-2.1.9z" fill="#031837"/><path d="M11.5 21.1c.5 0 1 .2 1.4.6.4.4.6.9.6 1.4 0 .5-.2 1-.6 1.4-.4.4-.9.6-1.4.6-.5 0-1-.2-1.4-.6-.4-.4-.6-.9-.6-1.4 0-.5.2-1 .6-1.4.4-.4.9-.6 1.4-.6zm0-2c-1 0-2 .4-2.8 1.2-1.6 1.6-1.6 4.1 0 5.7.8.8 1.8 1.2 2.8 1.2 1 0 2-.4 2.8-1.2 1.6-1.6 1.6-4.1 0-5.7-.7-.8-1.8-1.2-2.8-1.2z" fill="#3194E0"/></symbol><symbol id="category-wnyc-healthcare" viewBox="0 0 48 48"><path d="M35.5 39.9c-1.2 0-2.3-.5-3.2-1.3l-24-24c-.8-.8-1.3-2-1.3-3.2 0-1.2.5-2.3 1.3-3.2.8-.8 2-1.3 3.2-1.3 1.2 0 2.3.5 3.2 1.3l24 24c1.7 1.7 1.7 4.6 0 6.3-.8.9-2 1.4-3.2 1.4z" fill="#031837"/><path d="M11.6 7.9c.9 0 1.8.3 2.5 1l24 24c1.4 1.4 1.4 3.6 0 4.9-.7.7-1.6 1-2.5 1-.9 0-1.8-.3-2.5-1l-24-24c-1.4-1.4-1.4-3.6 0-4.9.7-.6 1.6-1 2.5-1zm0-2c-1.5 0-2.8.6-3.9 1.6-2.1 2.1-2.1 5.6 0 7.8l24 24c1 1 2.4 1.6 3.9 1.6s2.8-.6 3.9-1.6c2.1-2.1 2.1-5.6 0-7.8l-24-24c-1.1-1-2.5-1.6-3.9-1.6z" fill="#F1647C"/><path d="M36.9 43.8a7 7 0 100-14 7 7 0 000 14z" fill="#031837"/><path d="M36.9 30.7c3.3 0 6 2.7 6 6s-2.7 6-6 6-6-2.7-6-6 2.7-6 6-6zm0-2c-4.4 0-8 3.6-8 8s3.6 8 8 8 8-3.6 8-8-3.6-8-8-8z" fill="#F1647C"/><path d="M36.5 39.4c-.8 0-1.6-.3-2.2-.9l-25-25c-1.2-1.2-1.2-3.1 0-4.3.6-.6 1.4-.9 2.2-.9.8 0 1.6.3 2.2.9l25 25c1.2 1.2 1.2 3.1 0 4.3-.6.6-1.3.9-2.2.9z" fill="#F1647C"/><path d="M11.6 9.3c.5 0 1.1.2 1.5.6l25 25c.8.8.8 2.1 0 2.9-.4.4-.9.6-1.5.6s-1.1-.2-1.5-.6l-25-25c-.8-.8-.8-2.1 0-2.9.4-.4.9-.6 1.5-.6zm0-2c-1.1 0-2.1.4-2.9 1.2-1.6 1.6-1.6 4.2 0 5.8l25 25c.8.8 1.8 1.2 2.9 1.2 1.1 0 2.1-.4 2.9-1.2.8-.8 1.2-1.8 1.2-2.9 0-1.1-.4-2.1-1.2-2.9l-25-25c-.8-.8-1.9-1.2-2.9-1.2z" fill="#031837"/><path d="M36.9 42.3a5.5 5.5 0 100-11 5.5 5.5 0 000 11z" fill="#F1647C"/><path d="M36.9 32.2c2.5 0 4.5 2 4.5 4.5s-2 4.5-4.5 4.5-4.5-2-4.5-4.5c0-2.4 2-4.5 4.5-4.5zm0-2c-3.6 0-6.5 2.9-6.5 6.5s2.9 6.5 6.5 6.5 6.5-2.9 6.5-6.5c0-3.5-2.9-6.5-6.5-6.5z" fill="#031837"/><path d="M35.1 37.8l-25-25c-.8-.8-.8-2.1 0-2.9.8-.8 2.1-.8 2.9 0l25 25c.8.8.8 2.1 0 2.9-.8.8-2.1.8-2.9 0z" fill="#F1647C"/><path d="M36.9 41.3a4.5 4.5 0 100-9 4.5 4.5 0 000 9z" fill="#F1647C"/><path d="M35.4 4.6c.4 0 .8.1 1.1.4l7.1 7.1c.6.6.6 1.6 0 2.2L15 42.9c-.3.3-.7.4-1.1.4-.4 0-.8-.1-1.1-.4l-7.1-7.1c-.6-.6-.6-1.6 0-2.2L34.2 5.1c.4-.3.8-.5 1.2-.5zm0-2c-.9 0-1.8.4-2.5 1L4.4 32.1c-1.4 1.4-1.4 3.6 0 5l7.1 7.1c.7.7 1.6 1 2.5 1 .9 0 1.8-.4 2.5-1L45 15.7c.7-.7 1-1.6 1-2.5 0-.9-.4-1.8-1-2.5l-7.1-7.1c-.7-.6-1.6-1-2.5-1z" fill="#031837"/><path d="M23 31.9c-.3 0-.5-.1-.7-.3L17 26.3c-.4-.4-.4-1.1 0-1.5l8.4-8.4c.2-.2.5-.3.7-.3.3 0 .5.1.7.3l5.3 5.3c.4.4.4 1.1 0 1.5l-8.4 8.4c-.1.1-.4.3-.7.3z" fill="#F1647C"/><path d="M12.8 42.9l-7.1-7.1c-.6-.6-.6-1.6 0-2.2L34.2 5.1c.6-.6 1.6-.6 2.2 0l7.1 7.1c.6.6.6 1.6 0 2.2L15 42.9c-.6.6-1.6.6-2.2 0z" fill="#F1647C"/><path d="M26.2 16.6c.1 0 .3.1.4.2l5.3 5.3c.2.2.2.5 0 .7l-8.4 8.4c-.1.1-.2.2-.4.2-.1 0-.3-.1-.4-.2l-5.3-5.3c-.1-.1-.2-.2-.2-.4s.1-.3.2-.4l8.4-8.4c.2 0 .3-.1.4-.1zm0-1c-.4 0-.8.1-1.1.4l-8.4 8.4c-.6.6-.6 1.6 0 2.2l5.3 5.3c.3.3.7.4 1.1.4.4 0 .8-.1 1.1-.4l8.4-8.4c.6-.6.6-1.6 0-2.2L27.3 16c-.3-.2-.7-.4-1.1-.4zM14.3 35.1a.8.8 0 100-1.6.8.8 0 000 1.6zM17.9 35.2a.8.8 0 100-1.6.8.8 0 000 1.6zM10.8 35a.8.8 0 100-1.6.8.8 0 000 1.6zM14.2 31.6a.8.8 0 100-1.6.8.8 0 000 1.6zM14.4 38.7a.8.8 0 100-1.6.8.8 0 000 1.6zM35 14.4a.8.8 0 100-1.6.8.8 0 000 1.6zM38.6 14.5a.8.8 0 100-1.6.8.8 0 000 1.6zM31.4 14.3a.8.8 0 100-1.6.8.8 0 000 1.6zM34.9 10.8a.8.8 0 100-1.6.8.8 0 000 1.6zM35.1 18a.8.8 0 100-1.6.8.8 0 000 1.6z" fill="#031837"/></symbol><symbol id="category-wnyc-culinary" viewBox="0 0 48 48"><path d="M26.24 32.24l12.657 12.657 4.243-4.243-12.657-12.657-4.243 4.243z" fill="#4BAC4C"/><path d="M33.4 30.9l-8.2 8.2c-.4.4-1.1.5-1.4.1l-7.9-7.9C7.6 23 4.2 9.3 4.2 4.3c0-.9 1.2-1.5 1.8-.9l27.4 27.5z" stroke="#031837" stroke-width="2" stroke-miterlimit="10"/><path d="M33.4 30.9l-8.2 8.2c-.4.4-1.1.5-1.4.1l-7.9-7.9C7.6 23 4.2 9.3 4.2 4.3c0-.9 1.2-1.5 1.8-.9l27.4 27.5z" fill="#4BAC4C"/><path d="M14.6 30.8C18 34.2 37 20.9 40.5 17.4c3.4-3.4 3.4-9 0-12.5-3.4-3.4-9-3.4-12.5 0S11.1 27.3 14.6 30.8z" stroke="#031837" stroke-width="4" stroke-miterlimit="10"/><path d="M16.755 24.372L1.552 39.575l4.172 4.172 15.203-15.203-4.172-4.172z" stroke="#031837" stroke-width="2" stroke-miterlimit="10"/><path d="M16.755 24.372L1.552 39.575l4.172 4.172 15.203-15.203-4.172-4.172z" fill="#4BAC4C"/><path d="M14.6 30.8C18 34.2 37 20.9 40.5 17.4c3.4-3.4 3.4-9 0-12.5-3.4-3.4-9-3.4-12.5 0S11.1 27.3 14.6 30.8z" fill="#031837"/><path d="M14.6 30.8c-.5-.5 15.3-17.1 18.7-20.5 3.4-3.4 6.6-5.8 7.1-5.3" stroke="#4BAC4C" stroke-miterlimit="10"/><path d="M14.6 30.8c-2.5-2.5 11.7-20.6 15.2-24.1 3.4-3.4 8.2-4.2 10.7-1.8" stroke="#4BAC4C" stroke-miterlimit="10"/><path d="M14.6 30.8C13.1 29.3 28.1 12 31.5 8.5c3.4-3.4 7.4-5 8.9-3.6M14.6 30.8c.5.5 17.1-15.3 20.5-18.7 3.4-3.4 5.8-6.6 5.3-7.1" stroke="#4BAC4C" stroke-miterlimit="10"/><path d="M14.6 30.8c2.5 2.5 20.6-11.7 24.1-15.2 3.4-3.4 4.2-8.2 1.8-10.7" stroke="#4BAC4C" stroke-miterlimit="10"/><path d="M14.6 30.8c1.5 1.5 18.8-13.5 22.3-16.9 3.4-3.4 5-7.4 3.6-8.9" stroke="#4BAC4C" stroke-miterlimit="10"/><path d="M14.6 30.8C18 34.2 37 20.9 40.5 17.4c3.4-3.4 3.4-9 0-12.5-3.4-3.4-9-3.4-12.5 0S11.1 27.3 14.6 30.8z" stroke="#4BAC4C" stroke-miterlimit="10"/><path d="M14.4 26.5l4.4 4.4 5-1.9-7.4-7.5-2 5z" fill="#4BAC4C"/></symbol><symbol id="category-wnyc-construction" viewBox="0 0 48 48"><g clip-path="url(#clip0)"><path d="M9.106 13.089l31.537 31.536 5.303-5.303L14.409 7.786l-5.303 5.303z" fill="#FFD029"/><path d="M7.5 24c-.4 0-.7-.1-1-.4l-2.8-2.8c-.6-.6-.6-1.5 0-2l2-2c.3-.3.6-.4 1-.4.2 0 .3 0 .5.1l-.8-.8c-.6-.6-.6-1.5 0-2l8.5-8.5 1.2-1.3C19.2.8 22.4.1 24.4.1c1.3 0 2.1.3 2.1.3l1.6.5-1.6.4s-3.3.9-4.5 3.5c-.8 1.6-.7 3.5.2 5.6.5.6.5 1.4-.1 1.9l-8.5 8.5c-.3.3-.6.4-1 .4s-.7-.1-1-.4l-.8-.8c.2.5.1 1.1-.3 1.5l-2 2c-.3.3-.6.5-1 .5z" fill="#031837"/><path d="M24.4.5c1.2 0 2 .2 2 .2s-8 2.1-4.6 9.9c.4.4.4.9 0 1.3l-8.5 8.5c-.2.2-.4.3-.7.3-.3 0-.5-.1-.7-.3l-1.1-1.1-.7.7c.3.4.3.9 0 1.2l-2 2c-.2.2-.4.3-.7.3-.3 0-.5-.1-.7-.3l-2.8-2.8c-.4-.4-.4-.9 0-1.3l2-2c.2-.2.4-.3.6-.3.2 0 .4.1.6.2l.7-.7-1.1-1.1c-.4-.4-.4-.9 0-1.3l8.5-8.5c.5-.5.5-.5 1.2-1.3 3.1-3 6.1-3.6 8-3.6zm0-1c-2.2 0-5.4.7-8.7 3.9l-.8.8-.5.5-8.5 8.5c-.7.7-.7 1.9 0 2.7-.3.1-.5.2-.7.5l-2 2c-.4.4-.6.8-.6 1.4 0 .5.2 1 .6 1.4L6 24c.4.4.8.6 1.4.6.5 0 1-.2 1.4-.6l2-2c.2-.2.4-.5.5-.7.4.3.8.5 1.3.5s1-.2 1.4-.6l8.5-8.5c.4-.4.6-.8.6-1.4 0-.4-.1-.8-.4-1.2-.8-2-.9-3.7-.2-5.1 1.2-2.4 4.2-3.2 4.2-3.2L30 .9l-3.2-1c-.2-.1-1.1-.4-2.4-.4z" fill="#031837"/><path d="M26.4.8s-4.9-1.6-9.9 3.4c-.7.7-.7.8-1.2 1.3L6.8 14c-.4.4-.4.9 0 1.3l1.1 1.1-.7.7c-.4-.3-.9-.3-1.2 0l-2 2c-.4.4-.4.9 0 1.3l2.8 2.8c.4.4.9.4 1.3 0l2-2c.3-.3.3-.9 0-1.2l.7-.7 1.1 1.1c.4.4.9.4 1.3 0l8.5-8.5c.4-.4.4-.9 0-1.3C18.4 2.9 26.4.8 26.4.8z" fill="#FFD029"/><path d="M38.3 4.8l8.1 8.1-34 34-8.1-8.1 34-34zm0-2.8l-1.4 1.4-34 34-1.4 1.4 1.4 1.4 8.1 8.1 1.4 1.4 1.4-1.4 34-34 1.4-1.4-1.4-1.4-8.1-8.1L38.3 2z" fill="#031837"/><path d="M38.329 4.869L4.317 38.88l8.132 8.132L46.46 13.001 38.33 4.869z" fill="#FFD029"/><path d="M40.701 12.186l-.707.707 2.192 2.192.707-.707-2.192-2.192zM35.044 17.904l-.707.707 2.192 2.192.707-.707-2.191-2.192zM36.18 13.335l-.708.707 3.96 3.96.707-.708-3.96-3.96zM29.388 23.622l-.707.707 2.192 2.192.707-.707-2.192-2.192zM30.452 18.982l-.707.707 3.96 3.96.707-.708-3.96-3.96zM23.73 29.198l-.706.707 2.192 2.192.707-.707-2.192-2.192zM24.866 24.629l-.707.707 3.96 3.96.706-.707-3.96-3.96zM12.417 40.492l-.707.707 2.192 2.192.707-.707-2.192-2.192zM18.074 34.916l-.707.707 2.192 2.192.707-.707-2.192-2.192zM19.209 30.346l-.707.708 3.96 3.96.707-.708-3.96-3.96zM13.481 35.994l-.707.707 3.96 3.96.707-.708-3.96-3.96z" fill="#031837" stroke="#031837" stroke-width=".25" stroke-miterlimit="10"/></g></symbol></svg>