<svg viewBox="0 0 48 48" fill="none" xmlns="http://www.w3.org/2000/svg"><path d="M39.9 27.8L23.1 11.1c-.9-.9-2.1-1.3-3.4-1.3H8.3" fill="transparent" stroke="currentColor" stroke-width="2" stroke-miterlimit="10"/><path d="M39.3 38.8L9.7 9.2" stroke="currentColor" stroke-width="3" stroke-miterlimit="10"/><path d="M10.4 13.9c-1.1 0-2.1-.4-2.9-1.2-.8-.8-1.2-1.8-1.2-2.8 0-1.1.4-2.1 1.2-2.8.8-.8 1.8-1.2 2.8-1.2 1.1 0 2.1.4 2.9 1.2.8.8 1.2 1.8 1.2 2.8 0 1.1-.4 2.1-1.2 2.8-.8.8-1.8 1.2-2.8 1.2z" fill="#031837"/><path d="M10.4 7.3c.7 0 1.3.3 1.8.7.5.5.7 1.1.7 1.8s-.3 1.3-.7 1.8c-.5.5-1.1.7-1.8.7s-1.3-.3-1.8-.7c-.5-.5-.7-1.1-.7-1.8s.3-1.3.7-1.8c.5-.4 1.1-.7 1.8-.7zm0-3c-1.4 0-2.8.5-3.9 1.6-2.2 2.2-2.2 5.7 0 7.8 1.1 1.1 2.5 1.6 3.9 1.6s2.8-.5 3.9-1.6c2.2-2.2 2.2-5.7 0-7.8-1.1-1-2.5-1.6-3.9-1.6z" fill="currentColor"/><path d="M10.5 22.1l15.6 15.4c.9.9 2.1 1.3 3.4 1.3h11.4" fill="transparent" stroke="currentColor" stroke-width="2" stroke-miterlimit="10"/><path d="M39.3 42.9c-1.1 0-2.1-.4-2.9-1.2-.8-.8-1.2-1.8-1.2-2.8 0-1.1.4-2.1 1.2-2.8.8-.8 1.8-1.2 2.8-1.2 1.1 0 2.1.4 2.9 1.2.8.8 1.2 1.8 1.2 2.8 0 1.1-.4 2.1-1.2 2.8-.8.8-1.8 1.2-2.8 1.2z" fill="#031837"/><path d="M39.3 36.3c.7 0 1.3.3 1.8.7 1 1 1 2.6 0 3.6-.5.5-1.1.7-1.8.7s-1.3-.3-1.8-.7c-1-1-1-2.6 0-3.6.5-.4 1.1-.7 1.8-.7zm0-3c-1.4 0-2.8.5-3.9 1.6-2.2 2.2-2.2 5.7 0 7.8 1.1 1.1 2.5 1.6 3.9 1.6s2.8-.5 3.9-1.6c2.2-2.2 2.2-5.7 0-7.8-1.1-1-2.5-1.6-3.9-1.6z" fill="currentColor"/><path d="M37.7 5.2l5.6 5.6-30.7 30.7L5.5 43 7 35.9 37.7 5.2zm0-2.8l-1.4 1.4L5.6 34.5l-.4.4-.1.6-1.5 7.1-.6 3 3-.6 7.1-1.5.6-.1.3-.4 30.7-30.7 1.4-1.4-1.4-1.4-5.6-5.6-1.4-1.5z" fill="#031837"/><path d="M6.9 35.9L37.7 5.2l5.6 5.7-30.7 30.7-7.1 1.5 1.4-7.2z" fill="currentColor"/><path d="M7.6 36.6l4.3 4.3-5.4 1.2 1.1-5.5zM37.2 28.2c-.8 0-1.6-.3-2.1-.9-.6-.6-.9-1.3-.9-2.1s.3-1.6.9-2.1c.6-.6 1.3-.9 2.1-.9s1.6.3 2.1.9c.6.6.9 1.3.9 2.1s-.3 1.6-.9 2.1c-.5.6-1.3.9-2.1.9z" fill="#031837"/><path d="M37.2 23.2c.5 0 1 .2 1.4.6.8.8.8 2 0 2.8-.4.4-.9.6-1.4.6-.5 0-1-.2-1.4-.6-.4-.4-.6-.9-.6-1.4 0-.5.2-1 .6-1.4.4-.4.9-.6 1.4-.6zm0-2c-1 0-2 .4-2.8 1.2-1.6 1.6-1.6 4.1 0 5.7.8.8 1.8 1.2 2.8 1.2 1 0 2-.4 2.8-1.2 1.6-1.6 1.6-4.1 0-5.7-.7-.8-1.8-1.2-2.8-1.2z" fill="currentColor"/><path d="M11.5 26.1c-.8 0-1.6-.3-2.1-.9-.6-.6-.9-1.3-.9-2.1s.3-1.6.9-2.1c.6-.6 1.3-.9 2.1-.9s1.6.3 2.1.9c1.2 1.2 1.2 3.1 0 4.2-.5.6-1.3.9-2.1.9z" fill="#031837"/><path d="M11.5 21.1c.5 0 1 .2 1.4.6.4.4.6.9.6 1.4 0 .5-.2 1-.6 1.4-.4.4-.9.6-1.4.6-.5 0-1-.2-1.4-.6-.4-.4-.6-.9-.6-1.4 0-.5.2-1 .6-1.4.4-.4.9-.6 1.4-.6zm0-2c-1 0-2 .4-2.8 1.2-1.6 1.6-1.6 4.1 0 5.7.8.8 1.8 1.2 2.8 1.2 1 0 2-.4 2.8-1.2 1.6-1.6 1.6-4.1 0-5.7-.7-.8-1.8-1.2-2.8-1.2z" fill="currentColor"/></svg>