<?xml version="1.0" encoding="UTF-8"?><!DOCTYPE svg PUBLIC "-//W3C//DTD SVG 1.1//EN" "http://www.w3.org/Graphics/SVG/1.1/DTD/svg11.dtd"><svg xmlns="http://www.w3.org/2000/svg" xmlns:xlink="http://www.w3.org/1999/xlink"><defs/><symbol id="option-wnyc-radio" viewBox="0 0 24 24"><rect x="1" y="1" width="22" height="22" rx="11" stroke="currentColor" stroke-width="2" fill="transparent"/><rect x="4" y="4" width="16" height="16" rx="8" fill="currentColor"/></symbol><symbol id="option-wnyc-check" viewBox="0 0 24 24"><path stroke="currentColor" stroke-width="2" d="M1 1h22v22H1z"/><path d="M20 6L9 17l-5-5" fill="none"/></symbol><symbol id="logo-wnyc-standard" viewBox="0 0 305 28"><path d="M247 1.3l-.1 25.3h-7L230.3 15l-.1 11.5h-8.3l.1-25.3h7l9.6 11.6.1-11.5h8.3zM268.7 17.6v9.2h-8.5v-9.3l-9.5-16.1h9l5.1 8.8 5.3-8.7h8.3l-9.7 16.1zM285.6 25.7c-2.1-1.1-3.8-2.7-5-4.7-1.2-2-1.8-4.3-1.8-6.9 0-2.6.6-4.8 1.9-6.9 1.2-2 2.9-3.6 5.1-4.7C288 1.4 290.4.8 293 .8c2.5 0 4.7.5 6.6 1.3 1.9.9 3.5 2.1 4.8 3.8l-5.4 4.8c-1.6-2-3.4-3-5.5-3-1.8 0-3.2.6-4.3 1.7-1.1 1.1-1.6 2.7-1.6 4.6 0 1.9.5 3.5 1.6 4.6 1.1 1.2 2.5 1.7 4.3 1.7 2.1 0 4-1 5.6-2.9l5.4 4.8c-1.3 1.6-2.9 2.9-4.8 3.7-1.9.9-4.1 1.3-6.6 1.3-3 .2-5.4-.4-7.5-1.5z" fill="currentColor"/><path d="M40.6.4l-8.4 25.3h-6.3L20.4 8.4l-5.8 17.1H8.3L.1.2h6.1L11.8 18 17.9.2h5.4l5.7 18L35 .3l5.6.1zM50.9 24.5c-2.1-1.1-3.8-2.7-4.9-4.7-1.2-2-1.8-4.2-1.8-6.7s.6-4.7 1.8-6.7c1.2-2 2.9-3.5 5-4.7C53.1.5 55.5 0 58.1 0c2.6 0 5 .6 7.1 1.7 2.1 1.1 3.7 2.7 4.9 4.7 1.2 2 1.8 4.2 1.8 6.7s-.6 4.7-1.8 6.7c-1.2 2-2.9 3.5-5 4.7-2.1 1.1-4.5 1.7-7.1 1.7-2.7 0-5-.6-7.1-1.7zm11.2-4.3c1.2-.7 2.2-1.6 2.9-2.9.7-1.2 1-2.6 1.1-4.2.1-1.6-.3-3-1-4.2-.7-1.2-1.6-2.2-2.8-2.9-1.2-.7-2.6-1-4.1-1.1-1.5 0-2.8.3-4.1 1-1.2.7-2.2 1.6-2.9 2.9-.7 1.2-1 2.6-1.1 4.2 0 1.6.3 3 1 4.2.7 1.2 1.6 2.2 2.8 2.9 1.2.7 2.6 1 4 1 1.6.1 2.9-.2 4.2-.9zM94.6 25.9l-4.9-7.1H84.3v7.1h-5.9L78.5.6h11c2.2 0 4.2.4 5.8 1.1 1.6.8 2.9 1.8 3.8 3.2.9 1.4 1.3 3 1.3 4.9 0 1.9-.5 3.5-1.4 4.9-.9 1.4-2.2 2.4-3.9 3.1l5.6 8.2-6.1-.1zM93.2 6.5c-.9-.8-2.3-1.2-4-1.2h-4.8v8.8h4.8c1.8 0 3.1-.4 4-1.1.9-.8 1.4-1.9 1.4-3.3-.1-1.3-.5-2.4-1.4-3.2zM117.7 16.1l-3.4 3.5V26h-5.8l.1-25.3h5.8l-.1 11.8L125.6.7h6.5L121.5 12l11.1 14.1h-6.8l-8.1-10zM139.5.8h5.9l-.1 25.3h-5.9l.1-25.3zM177.9 1l-.1 25.3H173l-12.6-15.4-.1 15.4h-5.8l.1-25.3h4.9L172 16.4l.2-15.4h5.7zM203.8 13.4h5.4v10.3c-1.4 1-3 1.8-4.8 2.4-1.8.6-3.6.8-5.5.8-2.6 0-5-.6-7.1-1.7-2.1-1.1-3.7-2.7-4.9-4.7-1.2-2-1.8-4.2-1.8-6.8 0-2.6.6-4.8 1.8-6.7 1.2-2 2.9-3.5 5-4.6 2.1-1.1 4.5-1.7 7.2-1.7 2.2 0 4.2.4 6 1.1 1.8.8 3.3 1.8 4.5 3.3l-3.8 3.5c-1.8-1.9-4-2.9-6.5-2.9-1.6 0-3.1.3-4.3 1-1.3.7-2.2 1.6-2.9 2.8-.7 1.2-1.1 2.6-1.1 4.2s.3 3 1 4.2c.7 1.2 1.7 2.2 2.9 2.9 1.2.7 2.7 1 4.2 1.1 1.7 0 3.2-.3 4.6-1.1l.1-7.4z"/></symbol><symbol id="logo-wnyc-stacked" viewBox="0 0 211 61"><path d="M150.9 34.6l-.1 25.3h-7l-9.6-11.6-.1 11.5h-8.3l.1-25.3h7l9.6 11.6.1-11.5h8.3zM173.6 50.8V60h-8.5v-9.3l-9.5-16.1h9l5.1 8.8 5.3-8.7h8.3l-9.7 16.1zM191.5 59c-2.1-1.1-3.8-2.7-5-4.7-1.2-2-1.8-4.3-1.8-6.9 0-2.6.6-4.8 1.9-6.9 1.2-2 2.9-3.6 5.1-4.7 2.2-1.1 4.6-1.7 7.2-1.7 2.5 0 4.7.5 6.6 1.3 1.9.9 3.5 2.1 4.8 3.8l-5.4 4.8c-1.6-2-3.4-3-5.5-3-1.8 0-3.2.6-4.3 1.7-1.1 1.1-1.6 2.7-1.6 4.6 0 1.9.5 3.5 1.6 4.6 1.1 1.2 2.5 1.7 4.3 1.7 2.1 0 4-1 5.6-2.9l5.4 4.8c-1.3 1.6-2.9 2.9-4.8 3.7-1.9.9-4.1 1.3-6.6 1.3-2.9.2-5.3-.4-7.5-1.5z" fill="currentColor"/><path d="M40.6.6l-8.4 25.3h-6.3L20.4 8.7l-5.8 17.1H8.3L.1.4h6.1l5.6 17.8L17.9.4h5.4l5.7 18L35 .5l5.6.1zM50.9 24.7C48.8 23.6 47.1 22 46 20c-1.2-2-1.8-4.2-1.8-6.7s.6-4.7 1.8-6.7c1.2-2 2.9-3.5 5-4.7C53.1.8 55.5.2 58.1.2c2.6 0 5 .6 7.1 1.7 2.1 1.1 3.7 2.7 4.9 4.7 1.2 2 1.8 4.2 1.8 6.7s-.6 4.7-1.8 6.7c-1.2 2-2.9 3.5-5 4.7-2.1 1.1-4.5 1.7-7.1 1.7-2.6 0-5-.5-7.1-1.7zm11.2-4.3c1.2-.7 2.2-1.6 2.9-2.9.7-1.2 1-2.6 1.1-4.2.1-1.6-.3-3-1-4.2-.7-1.2-1.6-2.2-2.8-2.9-1.2-.7-2.6-1-4.1-1.1-1.5 0-2.8.3-4.1 1-1.2.7-2.2 1.6-2.9 2.9-.7 1.2-1 2.6-1.1 4.2 0 1.6.3 3 1 4.2.7 1.2 1.6 2.2 2.8 2.9 1.2.7 2.6 1 4 1 1.7.2 3-.2 4.2-.9zM94.6 26.2l-4.9-7.1H84.3v7.1h-5.9L78.5.9h11c2.2 0 4.2.4 5.8 1.1 1.6.8 2.9 1.8 3.8 3.2.9 1.4 1.3 3 1.3 4.9 0 1.9-.5 3.5-1.4 4.9-.9 1.4-2.2 2.4-3.9 3.1l5.6 8.2-6.1-.1zM93.2 6.8c-.9-.8-2.3-1.2-4-1.2h-4.8v8.8h4.8c1.8 0 3.1-.4 4-1.1.9-.8 1.4-1.9 1.4-3.3s-.4-2.5-1.4-3.2zM117.6 16.3l-3.4 3.5v6.4h-5.8l.1-25.3h5.8l-.1 11.8L125.5.9h6.5l-10.5 11.2 11.1 14.1h-6.8l-8.2-9.9zM139.5 1.1h5.9l-.1 25.3h-5.9l.1-25.3zM177.9 1.2l-.1 25.3H173l-12.6-15.4-.1 15.4h-5.8l.1-25.3h4.9L172 16.6l.1-15.4h5.8zM203.7 13.6h5.4v10.3c-1.4 1-3 1.8-4.8 2.4-1.8.6-3.6.8-5.5.8-2.6 0-5-.6-7.1-1.7-2.1-1.1-3.7-2.7-4.9-4.7-1.2-2-1.8-4.2-1.8-6.8 0-2.6.6-4.8 1.8-6.7 1.2-2 2.9-3.5 5-4.6 2.1-1.1 4.5-1.7 7.2-1.7 2.2 0 4.2.4 6 1.1 1.8.8 3.3 1.8 4.5 3.3l-3.8 3.5c-1.8-1.9-4-2.9-6.5-2.9-1.6 0-3.1.3-4.3 1-1.3.7-2.2 1.6-2.9 2.8-.7 1.2-1.1 2.6-1.1 4.2s.3 3 1 4.2c.7 1.2 1.7 2.2 2.9 2.9 1.2.7 2.7 1 4.2 1.1 1.7 0 3.2-.3 4.6-1.1l.1-7.4z"/></symbol><symbol id="icon-wnyc-ui-x" viewBox="0 0 24 24"><path d="M18 6L6 18M6 6l12 12"/></symbol><symbol id="icon-wnyc-ui-x-circle" viewBox="0 0 24 24"><circle cx="12" cy="12" r="10"/><path d="M15 9l-6 6M9 9l6 6"/></symbol><symbol id="icon-wnyc-ui-user-check" viewBox="0 0 24 24"><path d="M16 21v-2a4 4 0 00-4-4H5a4 4 0 00-4 4v2"/><circle cx="8.5" cy="7" r="4"/><path d="M17 11l2 2 4-4"/></symbol><symbol id="icon-wnyc-ui-twitter" viewBox="0 0 24 24"><path d="M23 3a10.9 10.9 0 01-3.14 1.53 4.48 4.48 0 00-7.86 3v1A10.66 10.66 0 013 4s-4 9 5 13a11.64 11.64 0 01-7 2c9 5 20 0 20-11.5a4.5 4.5 0 00-.08-.83A7.72 7.72 0 0023 3z"/></symbol><symbol id="icon-wnyc-ui-translate" viewBox="0 0 24 24"><path d="M3 16c1.5-.833 5-3.5 7-6.5S11.5 4 11.5 4m3 0h-6m-6 0h6m0 0V2.5M4.5 7c1 3 3 5.5 5.5 7.5m2 6.5l1.35-3M21 21l-1.35-3m-6.3 0l3.15-7.5c1.23 2.734 1.92 4.766 3.15 7.5m-6.3 0h6.3"/></symbol><symbol id="icon-wnyc-ui-thumbs-up" viewBox="0 0 24 24"><path d="M14 9V5a3 3 0 00-3-3l-4 9v11h11.28a2 2 0 002-1.7l1.38-9a2 2 0 00-2-2.3zM7 22H4a2 2 0 01-2-2v-7a2 2 0 012-2h3"/></symbol><symbol id="icon-wnyc-ui-thumbs-down" viewBox="0 0 24 24"><path d="M10 15v4a3 3 0 003 3l4-9V2H5.72a2 2 0 00-2 1.7l-1.38 9a2 2 0 002 2.3zm7-13h2.67A2.31 2.31 0 0122 4v7a2.31 2.31 0 01-2.33 2H17"/></symbol><symbol id="icon-wnyc-ui-share" viewBox="0 0 24 24"><path d="M4 12v8a2 2 0 002 2h12a2 2 0 002-2v-8M16 6l-4-4-4 4M12 2v13"/></symbol><symbol id="icon-wnyc-ui-share-2" viewBox="0 0 24 24"><circle cx="18" cy="5" r="3"/><circle cx="6" cy="12" r="3"/><circle cx="18" cy="19" r="3"/><path d="M8.59 13.51l6.83 3.98M15.41 6.51l-6.82 3.98"/></symbol><symbol id="icon-wnyc-ui-settings" viewBox="0 0 24 24"><circle cx="12" cy="12" r="3"/><path d="M19.4 15a1.65 1.65 0 00.33 1.82l.06.06a2 2 0 010 2.83 2 2 0 01-2.83 0l-.06-.06a1.65 1.65 0 00-1.82-.33 1.65 1.65 0 00-1 1.51V21a2 2 0 01-2 2 2 2 0 01-2-2v-.09A1.65 1.65 0 009 19.4a1.65 1.65 0 00-1.82.33l-.06.06a2 2 0 01-2.83 0 2 2 0 010-2.83l.06-.06a1.65 1.65 0 00.33-1.82 1.65 1.65 0 00-1.51-1H3a2 2 0 01-2-2 2 2 0 012-2h.09A1.65 1.65 0 004.6 9a1.65 1.65 0 00-.33-1.82l-.06-.06a2 2 0 010-2.83 2 2 0 012.83 0l.06.06a1.65 1.65 0 001.82.33H9a1.65 1.65 0 001-1.51V3a2 2 0 012-2 2 2 0 012 2v.09a1.65 1.65 0 001 1.51 1.65 1.65 0 001.82-.33l.06-.06a2 2 0 012.83 0 2 2 0 010 2.83l-.06.06a1.65 1.65 0 00-.33 1.82V9a1.65 1.65 0 001.51 1H21a2 2 0 012 2 2 2 0 01-2 2h-.09a1.65 1.65 0 00-1.51 1z"/></symbol><symbol id="icon-wnyc-ui-send" viewBox="0 0 24 24"><path d="M22 2L11 13M22 2l-7 20-4-9-9-4 20-7z"/></symbol><symbol id="icon-wnyc-ui-search" viewBox="0 0 24 24"><circle cx="11" cy="11" r="8"/><path d="M21 21l-4.35-4.35"/></symbol><symbol id="icon-wnyc-ui-rss" viewBox="0 0 24 24"><path d="M4 11a9 9 0 019 9M4 4a16 16 0 0116 16"/><circle cx="5" cy="19" r="1"/></symbol><symbol id="icon-wnyc-ui-printer" viewBox="0 0 24 24"><path d="M6 9V2h12v7M6 18H4a2 2 0 01-2-2v-5a2 2 0 012-2h16a2 2 0 012 2v5a2 2 0 01-2 2h-2"/><path d="M6 14h12v8H6z"/></symbol><symbol id="icon-wnyc-ui-plus-circle" viewBox="0 0 24 24"><circle cx="12" cy="12" r="10"/><path d="M12 8v8M8 12h8"/></symbol><symbol id="icon-wnyc-ui-navigation" viewBox="0 0 24 24"><path d="M3 11l19-9-9 19-2-8-8-2z"/></symbol><symbol id="icon-wnyc-ui-more-horizontal" viewBox="0 0 24 24"><circle cx="12" cy="12" r="1"/><circle cx="19" cy="12" r="1"/><circle cx="5" cy="12" r="1"/></symbol><symbol id="icon-wnyc-ui-minus-circle" viewBox="0 0 24 24"><circle cx="12" cy="12" r="10"/><path d="M8 12h8"/></symbol><symbol id="icon-wnyc-ui-message-circle" viewBox="0 0 24 24"><path d="M21 11.5a8.38 8.38 0 01-.9 3.8 8.5 8.5 0 01-7.6 4.7 8.38 8.38 0 01-3.8-.9L3 21l1.9-5.7a8.38 8.38 0 01-.9-3.8 8.5 8.5 0 014.7-7.6 8.38 8.38 0 013.8-.9h.5a8.48 8.48 0 018 8v.5z"/></symbol><symbol id="icon-wnyc-ui-menu" viewBox="0 0 24 24"><path d="M3 12h18M3 6h18M3 18h18"/></symbol><symbol id="icon-wnyc-ui-mail" viewBox="0 0 24 24"><path d="M4 4h16c1.1 0 2 .9 2 2v12c0 1.1-.9 2-2 2H4c-1.1 0-2-.9-2-2V6c0-1.1.9-2 2-2z"/><path d="M22 6l-10 7L2 6"/></symbol><symbol id="icon-wnyc-ui-info" viewBox="0 0 24 24"><circle cx="12" cy="12" r="10"/><path d="M12 16v-4M12 8h0"/></symbol><symbol id="icon-wnyc-ui-facebook" viewBox="0 0 24 24"><path d="M18 2h-3a5 5 0 00-5 5v3H7v4h3v8h4v-8h3l1-4h-4V7a1 1 0 011-1h3z"/></symbol><symbol id="icon-wnyc-ui-external-link" viewBox="0 0 24 24"><path d="M18 13v6a2 2 0 01-2 2H5a2 2 0 01-2-2V8a2 2 0 012-2h6M15 3h6v6M10 14L21 3"/></symbol><symbol id="icon-wnyc-ui-copy" viewBox="0 0 24 24"><rect x="9" y="9" width="13" height="13" rx="2" ry="2"/><path d="M5 15H4a2 2 0 01-2-2V4a2 2 0 012-2h9a2 2 0 012 2v1"/></symbol><symbol id="icon-wnyc-ui-chevron-up" viewBox="0 0 24 24"><path d="M18 15l-6-6-6 6"/></symbol><symbol id="icon-wnyc-ui-chevron-right" viewBox="0 0 24 24"><path d="M9 18l6-6-6-6"/></symbol><symbol id="icon-wnyc-ui-chevron-left" viewBox="0 0 24 24"><path d="M15 18l-6-6 6-6"/></symbol><symbol id="icon-wnyc-ui-chevron-down" viewBox="0 0 24 24"><path d="M6 9l6 6 6-6"/></symbol><symbol id="icon-wnyc-ui-check" viewBox="0 0 24 24"><path d="M20 6L9 17l-5-5"/></symbol><symbol id="icon-wnyc-ui-check-square" viewBox="0 0 24 24"><path d="M9 11l3 3L22 4"/><path d="M21 12v7a2 2 0 01-2 2H5a2 2 0 01-2-2V5a2 2 0 012-2h11"/></symbol><symbol id="icon-wnyc-ui-check-circle" viewBox="0 0 24 24"><path d="M22 11.08V12a10 10 0 11-5.93-9.14"/><path d="M22 4L12 14.01l-3-3"/></symbol><symbol id="icon-wnyc-ui-calendar" viewBox="0 0 24 24"><rect x="3" y="4" width="18" height="18" rx="2" ry="2"/><path d="M16 2v4M8 2v4M3 10h18"/></symbol><symbol id="icon-wnyc-ui-bookmark" viewBox="0 0 24 24"><path d="M19 21l-7-5-7 5V5a2 2 0 012-2h10a2 2 0 012 2z"/></symbol><symbol id="icon-wnyc-ui-bell" viewBox="0 0 24 24"><path d="M18 8A6 6 0 006 8c0 7-3 9-3 9h18s-3-2-3-9M13.73 21a2 2 0 01-3.46 0"/></symbol><symbol id="icon-wnyc-ui-arrow-right" viewBox="0 0 24 24"><path d="M5 12h14M12 5l7 7-7 7"/></symbol><symbol id="icon-wnyc-ui-arrow-left" viewBox="0 0 24 24"><path d="M19 12H5M12 19l-7-7 7-7"/></symbol><symbol id="icon-wnyc-ui-alert-triangle" viewBox="0 0 24 24"><path d="M10.29 3.86L1.82 18a2 2 0 001.71 3h16.94a2 2 0 001.71-3L13.71 3.86a2 2 0 00-3.42 0zM12 9v4M12 17h0"/></symbol><symbol id="icon-wnyc-ui-alert-octagon" viewBox="0 0 24 24"><path d="M7.86 2h8.28L22 7.86v8.28L16.14 22H7.86L2 16.14V7.86L7.86 2zM12 8v4M12 16h0"/></symbol></svg>