<svg viewBox="0 0 48 48" fill="none" xmlns="http://www.w3.org/2000/svg">
<path d="M26.2403 32.2397L38.8974 44.8969L43.14 40.6543L30.4829 27.9971L26.2403 32.2397Z" fill="currentColor"/>
<path d="M33.4 30.9001L25.2 39.1C24.8 39.5 24.1 39.6001 23.8 39.2001L15.9 31.3001C7.59999 23.0001 4.20001 9.30006 4.20001 4.30006C4.20001 3.40006 5.4 2.80009 6 3.40009L33.4 30.9001Z" stroke="#031837" stroke-width="2" stroke-miterlimit="10" fill="transparent"/>
<path d="M33.4 30.9001L25.2 39.1C24.8 39.5 24.1 39.6001 23.8 39.2001L15.9 31.3001C7.59999 23.0001 4.20001 9.30006 4.20001 4.30006C4.20001 3.40006 5.4 2.80009 6 3.40009L33.4 30.9001Z" fill="currentColor"/>
<path d="M14.6 30.8001C18 34.2001 37 20.9001 40.5 17.4001C43.9 14.0001 43.9 8.4001 40.5 4.9001C37.1 1.5001 31.5 1.5001 28 4.9001C24.5 8.3001 11.1 27.3001 14.6 30.8001Z" stroke="#031837" stroke-width="4" stroke-miterlimit="10" fill="transparent"/>
<path d="M16.7546 24.3725L1.55194 39.5751L5.72385 43.747L20.9265 28.5444L16.7546 24.3725Z" stroke="#031837" stroke-width="2" stroke-miterlimit="10" fill="transparent"/>
<path d="M16.7546 24.3725L1.55194 39.5751L5.72385 43.747L20.9265 28.5444L16.7546 24.3725Z" fill="currentColor"/>
<path d="M14.6 30.8001C18 34.2001 37 20.9001 40.5 17.4001C43.9 14.0001 43.9 8.4001 40.5 4.9001C37.1 1.5001 31.5 1.5001 28 4.9001C24.5 8.3001 11.1 27.3001 14.6 30.8001Z" fill="#031837"/>
<path d="M14.6 30.8001C14.1 30.3001 29.9 13.7001 33.3 10.3001C36.7 6.90006 39.9 4.50007 40.4 5.00007" stroke="currentColor" stroke-miterlimit="10" fill="transparent"/>
<path d="M14.6 30.8001C12.1 28.3001 26.3 10.2001 29.8 6.70009C33.2 3.30009 38 2.5001 40.5 4.9001" stroke="currentColor" stroke-miterlimit="10" fill="transparent"/>
<path d="M14.6 30.8001C13.1 29.3001 28.1 12.0001 31.5 8.50008C34.9 5.10008 38.9 3.5001 40.4 4.9001" stroke="currentColor" stroke-miterlimit="10" fill="transparent"/>
<path d="M14.6 30.8C15.1 31.3 31.7 15.5 35.1 12.1C38.5 8.70004 40.9 5.50006 40.4 5.00006" stroke="currentColor" stroke-miterlimit="10" fill="transparent"/>
<path d="M14.6 30.8C17.1 33.3 35.2 19.1 38.7 15.6C42.1 12.2 42.9 7.40009 40.5 4.90009" stroke="currentColor" stroke-miterlimit="10" fill="transparent"/>
<path d="M14.6 30.8C16.1 32.3 33.4 17.3001 36.9 13.9001C40.3 10.5001 41.9 6.50006 40.5 5.00006" stroke="currentColor" stroke-miterlimit="10" fill="transparent"/>
<path d="M14.6 30.8001C18 34.2001 37 20.9001 40.5 17.4001C43.9 14.0001 43.9 8.4001 40.5 4.9001C37.1 1.5001 31.5 1.5001 28 4.9001C24.5 8.3001 11.1 27.3001 14.6 30.8001Z" stroke="currentColor" stroke-miterlimit="10" fill="transparent"/>
<path d="M14.4 26.5001L18.8 30.9001L23.8 29.0001L16.4 21.5001L14.4 26.5001Z" fill="currentColor"/>
</svg>
