<svg viewBox="0 0 48 48" fill="none" xmlns="http://www.w3.org/2000/svg">
<path d="M39.9 27.8L23.1 11.1C22.2 10.2 21 9.79999 19.7 9.79999H8.29999" fill="transparent" stroke="currentColor" stroke-width="2" stroke-miterlimit="10"/>
<path d="M39.3 38.8L9.70001 9.20001" stroke="currentColor" stroke-width="3" stroke-miterlimit="10"/>
<path d="M10.4 13.9C9.29999 13.9 8.29999 13.5 7.49999 12.7C6.69999 11.9 6.29999 10.9 6.29999 9.90002C6.29999 8.80002 6.69999 7.79998 7.49999 7.09998C8.29999 6.29998 9.29999 5.90002 10.3 5.90002C11.4 5.90002 12.4 6.29998 13.2 7.09998C14 7.89998 14.4 8.90002 14.4 9.90002C14.4 11 14 12 13.2 12.7C12.4 13.5 11.4 13.9 10.4 13.9Z" fill="#031837"/>
<path d="M10.4 7.29999C11.1 7.29999 11.7 7.6 12.2 8C12.7 8.5 12.9 9.09999 12.9 9.79999C12.9 10.5 12.6 11.1 12.2 11.6C11.7 12.1 11.1 12.3 10.4 12.3C9.69998 12.3 9.09998 12 8.59998 11.6C8.09998 11.1 7.89998 10.5 7.89998 9.79999C7.89998 9.09999 8.19998 8.5 8.59998 8C9.09998 7.6 9.69998 7.29999 10.4 7.29999ZM10.4 4.29999C8.99998 4.29999 7.59998 4.80002 6.49998 5.90002C4.29998 8.10002 4.29998 11.6 6.49998 13.7C7.59998 14.8 8.99998 15.3 10.4 15.3C11.8 15.3 13.2 14.8 14.3 13.7C16.5 11.5 16.5 8.00002 14.3 5.90002C13.2 4.90002 11.8 4.29999 10.4 4.29999Z" fill="currentColor"/>
<path d="M10.5 22.1L26.1 37.5C27 38.4 28.2 38.8 29.5 38.8H40.9" fill="transparent" stroke="currentColor" stroke-width="2" stroke-miterlimit="10"/>
<path d="M39.3 42.9C38.2 42.9 37.2 42.5 36.4 41.7C35.6 40.9 35.2 39.9 35.2 38.9C35.2 37.8 35.6 36.8 36.4 36.1C37.2 35.3 38.2 34.9 39.2 34.9C40.3 34.9 41.3 35.3 42.1 36.1C42.9 36.9 43.3 37.9 43.3 38.9C43.3 40 42.9 41 42.1 41.7C41.3 42.5 40.3 42.9 39.3 42.9Z" fill="#031837"/>
<path d="M39.3 36.3C40 36.3 40.6 36.6 41.1 37C42.1 38 42.1 39.6 41.1 40.6C40.6 41.1 40 41.3 39.3 41.3C38.6 41.3 38 41 37.5 40.6C36.5 39.6 36.5 38 37.5 37C38 36.6 38.6 36.3 39.3 36.3ZM39.3 33.3C37.9 33.3 36.5 33.8 35.4 34.9C33.2 37.1 33.2 40.6 35.4 42.7C36.5 43.8 37.9 44.3 39.3 44.3C40.7 44.3 42.1 43.8 43.2 42.7C45.4 40.5 45.4 37 43.2 34.9C42.1 33.9 40.7 33.3 39.3 33.3Z" fill="currentColor"/>
<path d="M37.7 5.20001L43.3 10.8L12.6 41.5L5.5 43L7 35.9L37.7 5.20001ZM37.7 2.40002L36.3 3.79999L5.6 34.5L5.2 34.9L5.1 35.5L3.6 42.6L3 45.6L6 45L13.1 43.5L13.7 43.4L14 43L44.7 12.3L46.1 10.9L44.7 9.5L39.1 3.90002L37.7 2.40002Z" fill="#031837"/>
<path d="M6.9 35.9L37.7 5.20001L43.3 10.9L12.6 41.6L5.5 43.1L6.9 35.9Z" fill="currentColor"/>
<path d="M7.6 36.6L11.9 40.9L6.5 42.1L7.6 36.6Z" fill="#031837"/>
<path d="M37.2 28.2C36.4 28.2 35.6 27.9 35.1 27.3C34.5 26.7 34.2 26 34.2 25.2C34.2 24.4 34.5 23.6 35.1 23.1C35.7 22.5 36.4 22.2 37.2 22.2C38 22.2 38.8 22.5 39.3 23.1C39.9 23.7 40.2 24.4 40.2 25.2C40.2 26 39.9 26.8 39.3 27.3C38.8 27.9 38 28.2 37.2 28.2Z" fill="#031837"/>
<path d="M37.2 23.2C37.7 23.2 38.2 23.4 38.6 23.8C39.4 24.6 39.4 25.8 38.6 26.6C38.2 27 37.7 27.2 37.2 27.2C36.7 27.2 36.2 27 35.8 26.6C35.4 26.2 35.2 25.7 35.2 25.2C35.2 24.7 35.4 24.2 35.8 23.8C36.2 23.4 36.7 23.2 37.2 23.2ZM37.2 21.2C36.2 21.2 35.2 21.6 34.4 22.4C32.8 24 32.8 26.5 34.4 28.1C35.2 28.9 36.2 29.3 37.2 29.3C38.2 29.3 39.2 28.9 40 28.1C41.6 26.5 41.6 24 40 22.4C39.3 21.6 38.2 21.2 37.2 21.2Z" fill="currentColor"/>
<path d="M11.5 26.1C10.7 26.1 9.9 25.8 9.4 25.2C8.8 24.6 8.5 23.9 8.5 23.1C8.5 22.3 8.8 21.5 9.4 21C10 20.4 10.7 20.1 11.5 20.1C12.3 20.1 13.1 20.4 13.6 21C14.8 22.2 14.8 24.1 13.6 25.2C13.1 25.8 12.3 26.1 11.5 26.1Z" fill="#031837"/>
<path d="M11.5 21.1C12 21.1 12.5 21.3 12.9 21.7C13.3 22.1 13.5 22.6 13.5 23.1C13.5 23.6 13.3 24.1 12.9 24.5C12.5 24.9 12 25.1 11.5 25.1C11 25.1 10.5 24.9 10.1 24.5C9.7 24.1 9.5 23.6 9.5 23.1C9.5 22.6 9.7 22.1 10.1 21.7C10.5 21.3 11 21.1 11.5 21.1ZM11.5 19.1C10.5 19.1 9.5 19.5 8.7 20.3C7.1 21.9 7.1 24.4 8.7 26C9.5 26.8 10.5 27.2 11.5 27.2C12.5 27.2 13.5 26.8 14.3 26C15.9 24.4 15.9 21.9 14.3 20.3C13.6 19.5 12.5 19.1 11.5 19.1Z" fill="currentColor"/>
</svg>
