<svg viewBox="0 0 48 48" fill="none" xmlns="http://www.w3.org/2000/svg">
<path d="M35.5 39.9C34.3 39.9 33.2 39.4 32.3 38.6L8.3 14.6C7.5 13.8 7 12.6 7 11.4C7 10.2 7.5 9.10001 8.3 8.20001C9.1 7.40001 10.3 6.90002 11.5 6.90002C12.7 6.90002 13.8 7.40001 14.7 8.20001L38.7 32.2C40.4 33.9 40.4 36.8 38.7 38.5C37.9 39.4 36.7 39.9 35.5 39.9Z" fill="#031837"/>
<path d="M11.6 7.90002C12.5 7.90002 13.4 8.20002 14.1 8.90002L38.1 32.9C39.5 34.3 39.5 36.5 38.1 37.8C37.4 38.5 36.5 38.8 35.6 38.8C34.7 38.8 33.8 38.5 33.1 37.8L9.1 13.8C7.7 12.4 7.7 10.2 9.1 8.90002C9.8 8.30002 10.7 7.90002 11.6 7.90002ZM11.6 5.90002C10.1 5.90002 8.8 6.5 7.7 7.5C5.6 9.6 5.6 13.1 7.7 15.3L31.7 39.3C32.7 40.3 34.1 40.9 35.6 40.9C37.1 40.9 38.4 40.3 39.5 39.3C41.6 37.2 41.6 33.7 39.5 31.5L15.5 7.5C14.4 6.5 13 5.90002 11.6 5.90002Z" fill="currentColor"/>
<path d="M36.9 43.8C40.766 43.8 43.9 40.666 43.9 36.8C43.9 32.934 40.766 29.8 36.9 29.8C33.034 29.8 29.9 32.934 29.9 36.8C29.9 40.666 33.034 43.8 36.9 43.8Z" fill="#031837"/>
<path d="M36.9 30.7C40.2 30.7 42.9 33.4 42.9 36.7C42.9 40 40.2 42.7 36.9 42.7C33.6 42.7 30.9 40 30.9 36.7C30.9 33.4 33.6 30.7 36.9 30.7ZM36.9 28.7C32.5 28.7 28.9 32.3 28.9 36.7C28.9 41.1 32.5 44.7 36.9 44.7C41.3 44.7 44.9 41.1 44.9 36.7C44.9 32.3 41.3 28.7 36.9 28.7Z" fill="currentColor"/>
<path d="M36.5 39.4C35.7 39.4 34.9 39.1 34.3 38.5L9.30002 13.5C8.10002 12.3 8.10002 10.4 9.30002 9.20001C9.90002 8.60001 10.7 8.29999 11.5 8.29999C12.3 8.29999 13.1 8.60001 13.7 9.20001L38.7 34.2C39.9 35.4 39.9 37.3 38.7 38.5C38.1 39.1 37.4 39.4 36.5 39.4Z" fill="currentColor"/>
<path d="M11.6 9.29999C12.1 9.29999 12.7 9.50002 13.1 9.90002L38.1 34.9C38.9 35.7 38.9 37 38.1 37.8C37.7 38.2 37.2 38.4 36.6 38.4C36 38.4 35.5 38.2 35.1 37.8L10.1 12.8C9.3 12 9.3 10.7 10.1 9.90002C10.5 9.50002 11 9.29999 11.6 9.29999ZM11.6 7.29999C10.5 7.29999 9.5 7.7 8.7 8.5C7.1 10.1 7.1 12.7 8.7 14.3L33.7 39.3C34.5 40.1 35.5 40.5 36.6 40.5C37.7 40.5 38.7 40.1 39.5 39.3C40.3 38.5 40.7 37.5 40.7 36.4C40.7 35.3 40.3 34.3 39.5 33.5L14.5 8.5C13.7 7.7 12.6 7.29999 11.6 7.29999Z" fill="#031837"/>
<path d="M36.9 42.3C39.9376 42.3 42.4 39.8376 42.4 36.8C42.4 33.7624 39.9376 31.3 36.9 31.3C33.8625 31.3 31.4 33.7624 31.4 36.8C31.4 39.8376 33.8625 42.3 36.9 42.3Z" fill="currentColor"/>
<path d="M36.9 32.2C39.4 32.2 41.4 34.2 41.4 36.7C41.4 39.2 39.4 41.2 36.9 41.2C34.4 41.2 32.4 39.2 32.4 36.7C32.4 34.3 34.4 32.2 36.9 32.2ZM36.9 30.2C33.3 30.2 30.4 33.1 30.4 36.7C30.4 40.3 33.3 43.2 36.9 43.2C40.5 43.2 43.4 40.3 43.4 36.7C43.4 33.2 40.5 30.2 36.9 30.2Z" fill="#031837"/>
<path d="M35.1 37.8L10.1 12.8C9.3 12 9.3 10.7 10.1 9.90005C10.9 9.10005 12.2 9.10005 13 9.90005L38 34.9C38.8 35.7 38.8 37 38 37.8C37.2 38.6 35.9 38.6 35.1 37.8Z" fill="currentColor"/>
<path d="M36.9 41.3C39.3853 41.3 41.4 39.2853 41.4 36.8C41.4 34.3147 39.3853 32.3 36.9 32.3C34.4147 32.3 32.4 34.3147 32.4 36.8C32.4 39.2853 34.4147 41.3 36.9 41.3Z" fill="currentColor"/>
<path d="M35.4 4.59998C35.8 4.59998 36.2 4.7 36.5 5L43.6 12.1C44.2 12.7 44.2 13.7 43.6 14.3L15 42.9C14.7 43.2 14.3 43.3 13.9 43.3C13.5 43.3 13.1 43.2 12.8 42.9L5.69997 35.8C5.09997 35.2 5.09997 34.2 5.69997 33.6L34.2 5.09998C34.6 4.79998 35 4.59998 35.4 4.59998ZM35.4 2.59998C34.5 2.59998 33.6 2.99998 32.9 3.59998L4.39998 32.1C2.99998 33.5 2.99998 35.7 4.39998 37.1L11.5 44.2C12.2 44.9 13.1 45.2 14 45.2C14.9 45.2 15.8 44.8 16.5 44.2L45 15.7C45.7 15 46 14.1 46 13.2C46 12.3 45.6 11.4 45 10.7L37.9 3.59998C37.2 2.99998 36.3 2.59998 35.4 2.59998Z" fill="#031837"/>
<path d="M23 31.9C22.7 31.9 22.5 31.8 22.3 31.6L17 26.3C16.6 25.9 16.6 25.2 17 24.8L25.4 16.4C25.6 16.2 25.9 16.1 26.1 16.1C26.4 16.1 26.6 16.2 26.8 16.4L32.1 21.7C32.5 22.1 32.5 22.8 32.1 23.2L23.7 31.6C23.6 31.7 23.3 31.9 23 31.9Z" fill="currentColor"/>
<path d="M12.8 42.9L5.7 35.8C5.1 35.2 5.1 34.2 5.7 33.6L34.2 5.09996C34.8 4.49996 35.8 4.49996 36.4 5.09996L43.5 12.2C44.1 12.8 44.1 13.8 43.5 14.4L15 42.9C14.4 43.5 13.4 43.5 12.8 42.9Z" fill="currentColor"/>
<path d="M26.2 16.6C26.3 16.6 26.5 16.7 26.6 16.8L31.9 22.1C32.1 22.3 32.1 22.6 31.9 22.8L23.5 31.2C23.4 31.3 23.3 31.4 23.1 31.4C23 31.4 22.8 31.3 22.7 31.2L17.4 25.9C17.3 25.8 17.2 25.7 17.2 25.5C17.2 25.3 17.3 25.2 17.4 25.1L25.8 16.7C26 16.7 26.1 16.6 26.2 16.6ZM26.2 15.6C25.8 15.6 25.4 15.7 25.1 16L16.7 24.4C16.1 25 16.1 26 16.7 26.6L22 31.9C22.3 32.2 22.7 32.3 23.1 32.3C23.5 32.3 23.9 32.2 24.2 31.9L32.6 23.5C33.2 22.9 33.2 21.9 32.6 21.3L27.3 16C27 15.8 26.6 15.6 26.2 15.6Z" fill="#031837"/>
<path d="M14.3 35.1C14.7418 35.1 15.1 34.7418 15.1 34.3C15.1 33.8582 14.7418 33.5 14.3 33.5C13.8582 33.5 13.5 33.8582 13.5 34.3C13.5 34.7418 13.8582 35.1 14.3 35.1Z" fill="#031837"/>
<path d="M17.9 35.2C18.3418 35.2 18.7 34.8419 18.7 34.4C18.7 33.9582 18.3418 33.6 17.9 33.6C17.4581 33.6 17.1 33.9582 17.1 34.4C17.1 34.8419 17.4581 35.2 17.9 35.2Z" fill="#031837"/>
<path d="M10.8 35C11.2418 35 11.6 34.6418 11.6 34.2C11.6 33.7582 11.2418 33.4 10.8 33.4C10.3582 33.4 10 33.7582 10 34.2C10 34.6418 10.3582 35 10.8 35Z" fill="#031837"/>
<path d="M14.2 31.6C14.6418 31.6 15 31.2418 15 30.8C15 30.3582 14.6418 30 14.2 30C13.7582 30 13.4 30.3582 13.4 30.8C13.4 31.2418 13.7582 31.6 14.2 31.6Z" fill="#031837"/>
<path d="M14.4 38.7C14.8418 38.7 15.2 38.3419 15.2 37.9C15.2 37.4582 14.8418 37.1 14.4 37.1C13.9582 37.1 13.6 37.4582 13.6 37.9C13.6 38.3419 13.9582 38.7 14.4 38.7Z" fill="#031837"/>
<path d="M35 14.4C35.4418 14.4 35.8 14.0418 35.8 13.6C35.8 13.1581 35.4418 12.8 35 12.8C34.5581 12.8 34.2 13.1581 34.2 13.6C34.2 14.0418 34.5581 14.4 35 14.4Z" fill="#031837"/>
<path d="M38.6 14.5C39.0418 14.5 39.4 14.1418 39.4 13.7C39.4 13.2582 39.0418 12.9 38.6 12.9C38.1582 12.9 37.8 13.2582 37.8 13.7C37.8 14.1418 38.1582 14.5 38.6 14.5Z" fill="#031837"/>
<path d="M31.4 14.3C31.8418 14.3 32.2 13.9418 32.2 13.5C32.2 13.0582 31.8418 12.7 31.4 12.7C30.9581 12.7 30.6 13.0582 30.6 13.5C30.6 13.9418 30.9581 14.3 31.4 14.3Z" fill="#031837"/>
<path d="M34.9 10.8C35.3418 10.8 35.7 10.4418 35.7 10C35.7 9.55817 35.3418 9.20001 34.9 9.20001C34.4581 9.20001 34.1 9.55817 34.1 10C34.1 10.4418 34.4581 10.8 34.9 10.8Z" fill="#031837"/>
<path d="M35.1 18C35.5418 18 35.9 17.6418 35.9 17.2C35.9 16.7582 35.5418 16.4 35.1 16.4C34.6582 16.4 34.3 16.7582 34.3 17.2C34.3 17.6418 34.6582 18 35.1 18Z" fill="#031837"/>
</svg>
