<svg viewBox="0 0 48 48" fill="none" xmlns="http://www.w3.org/2000/svg">
<g clip-path="url(#clip0)">
<path d="M9.10611 13.0888L40.6428 44.6254L45.946 39.3222L14.4094 7.78552L9.10611 13.0888Z" fill="currentColor"/>
<path d="M7.5 24C7.1 24 6.8 23.9 6.5 23.6L3.7 20.8C3.1 20.2 3.1 19.3 3.7 18.8L5.7 16.8C6 16.5 6.3 16.4 6.7 16.4C6.9 16.4 7 16.4 7.2 16.5L6.4 15.7C5.8 15.1 5.8 14.2 6.4 13.7L14.9 5.20001L16.1 3.90002C19.2 0.800025 22.4 0.0999756 24.4 0.0999756C25.7 0.0999756 26.5 0.400024 26.5 0.400024L28.1 0.900024L26.5 1.29999C26.5 1.29999 23.2 2.19999 22 4.79999C21.2 6.39999 21.3 8.30002 22.2 10.4C22.7 11 22.7 11.8 22.1 12.3L13.6 20.8C13.3 21.1 13 21.2 12.6 21.2C12.2 21.2 11.9 21.1 11.6 20.8L10.8 20C11 20.5 10.9 21.1 10.5 21.5L8.5 23.5C8.2 23.8 7.9 24 7.5 24Z" fill="#031837"/>
<path d="M24.4 0.5C25.6 0.5 26.4 0.700012 26.4 0.700012C26.4 0.700012 18.4 2.79998 21.8 10.6C22.2 11 22.2 11.5 21.8 11.9L13.3 20.4C13.1 20.6 12.9 20.7 12.6 20.7C12.3 20.7 12.1 20.6 11.9 20.4L10.8 19.3L10.1 20C10.4 20.4 10.4 20.9 10.1 21.2L8.10001 23.2C7.90001 23.4 7.69999 23.5 7.39999 23.5C7.09999 23.5 6.9 23.4 6.7 23.2L3.89999 20.4C3.49999 20 3.49999 19.5 3.89999 19.1L5.89999 17.1C6.09999 16.9 6.3 16.8 6.5 16.8C6.7 16.8 6.90001 16.9 7.10001 17L7.8 16.3L6.7 15.2C6.3 14.8 6.3 14.3 6.7 13.9L15.2 5.40002C15.7 4.90002 15.7 4.89998 16.4 4.09998C19.5 1.09998 22.5 0.5 24.4 0.5ZM24.4 -0.5C22.2 -0.5 19 0.200024 15.7 3.40002C15.3 3.80002 15.1 4.00001 14.9 4.20001C14.8 4.30001 14.6 4.50001 14.4 4.70001L5.89999 13.2C5.19999 13.9 5.19999 15.1 5.89999 15.9C5.59999 16 5.4 16.1 5.2 16.4L3.2 18.4C2.8 18.8 2.60001 19.2 2.60001 19.8C2.60001 20.3 2.8 20.8 3.2 21.2L6 24C6.4 24.4 6.79999 24.6 7.39999 24.6C7.89999 24.6 8.4 24.4 8.8 24L10.8 22C11 21.8 11.2 21.5 11.3 21.3C11.7 21.6 12.1 21.8 12.6 21.8C13.1 21.8 13.6 21.6 14 21.2L22.5 12.7C22.9 12.3 23.1 11.9 23.1 11.3C23.1 10.9 23 10.5 22.7 10.1C21.9 8.09998 21.8 6.4 22.5 5C23.7 2.6 26.7 1.79999 26.7 1.79999L30 0.900024L26.8 -0.0999756C26.6 -0.199976 25.7 -0.5 24.4 -0.5Z" fill="#031837"/>
<path d="M26.4 0.799992C26.4 0.799992 21.5 -0.799984 16.5 4.20002C15.8 4.90002 15.8 5 15.3 5.5L6.80002 14C6.40002 14.4 6.40002 14.9 6.80002 15.3L7.90001 16.4L7.20001 17.1C6.80001 16.8 6.30001 16.8 6.00001 17.1L4.00001 19.1C3.60001 19.5 3.60001 20 4.00001 20.4L6.80002 23.2C7.20002 23.6 7.70002 23.6 8.10002 23.2L10.1 21.2C10.4 20.9 10.4 20.3 10.1 20L10.8 19.3L11.9 20.4C12.3 20.8 12.8 20.8 13.2 20.4L21.7 11.9C22.1 11.5 22.1 11 21.7 10.6C18.4 2.89998 26.4 0.799992 26.4 0.799992Z" fill="currentColor"/>
<path d="M38.3 4.79999L46.4 12.9L12.4 46.9L4.3 38.8L38.3 4.79999ZM38.3 2L36.9 3.40002L2.89999 37.4L1.5 38.8L2.89999 40.2L11 48.3L12.4 49.7L13.8 48.3L47.8 14.3L49.2 12.9L47.8 11.5L39.7 3.40002L38.3 2Z" fill="#031837"/>
<path d="M38.3288 4.86899L4.31726 38.8805L12.4489 47.0121L46.4604 13.0006L38.3288 4.86899Z" fill="currentColor"/>
<path d="M40.7014 12.186L39.9943 12.8931L42.1863 15.0851L42.8934 14.378L40.7014 12.186Z" fill="#031837" stroke="#031837" stroke-width="0.25" stroke-miterlimit="10"/>
<path d="M35.0445 17.9037L34.3374 18.6108L36.5294 20.8029L37.2365 20.0958L35.0445 17.9037Z" fill="#031837" stroke="#031837" stroke-width="0.25" stroke-miterlimit="10"/>
<path d="M36.1793 13.3346L35.4722 14.0417L39.432 18.0014L40.1391 17.2943L36.1793 13.3346Z" fill="#031837" stroke="#031837" stroke-width="0.25" stroke-miterlimit="10"/>
<path d="M29.3877 23.6216L28.6806 24.3287L30.8726 26.5207L31.5797 25.8136L29.3877 23.6216Z" fill="#031837" stroke="#031837" stroke-width="0.25" stroke-miterlimit="10"/>
<path d="M30.4518 18.9816L29.7447 19.6887L33.7045 23.6484L34.4116 22.9413L30.4518 18.9816Z" fill="#031837" stroke="#031837" stroke-width="0.25" stroke-miterlimit="10"/>
<path d="M23.7308 29.1979L23.0237 29.905L25.2157 32.097L25.9228 31.3899L23.7308 29.1979Z" fill="#031837" stroke="#031837" stroke-width="0.25" stroke-miterlimit="10"/>
<path d="M24.8656 24.6287L24.1585 25.3358L28.1183 29.2956L28.8254 28.5885L24.8656 24.6287Z" fill="#031837" stroke="#031837" stroke-width="0.25" stroke-miterlimit="10"/>
<path d="M12.4171 40.4921L11.71 41.1992L13.902 43.3912L14.6091 42.6841L12.4171 40.4921Z" fill="#031837" stroke="#031837" stroke-width="0.25" stroke-miterlimit="10"/>
<path d="M18.074 34.9158L17.3669 35.6229L19.5589 37.8149L20.266 37.1078L18.074 34.9158Z" fill="#031837" stroke="#031837" stroke-width="0.25" stroke-miterlimit="10"/>
<path d="M19.2088 30.3465L18.5017 31.0536L22.4615 35.0133L23.1686 34.3062L19.2088 30.3465Z" fill="#031837" stroke="#031837" stroke-width="0.25" stroke-miterlimit="10"/>
<path d="M13.4812 35.9936L12.7741 36.7007L16.7339 40.6604L17.441 39.9533L13.4812 35.9936Z" fill="#031837" stroke="#031837" stroke-width="0.25" stroke-miterlimit="10"/>
</g>
<defs>
<clipPath id="clip0">
<rect width="48" height="48" fill="white" transform="translate(0.5)"/>
</clipPath>
</defs>
</svg>
