<svg viewBox="0 0 211 61" fill="none" xmlns="http://www.w3.org/2000/svg">
<path d="M150.9 34.6L150.8 59.9H143.8L134.2 48.3L134.1 59.8H125.8L125.9 34.5H132.9L142.5 46.1L142.6 34.6H150.9Z" fill="currentColor"/>
<path d="M173.6 50.8V60H165.1V50.7L155.6 34.6H164.6L169.7 43.4L175 34.7H183.3L173.6 50.8Z" fill="currentColor"/>
<path d="M191.5 59C189.4 57.9 187.7 56.3 186.5 54.3C185.3 52.3 184.7 50 184.7 47.4C184.7 44.8 185.3 42.6 186.6 40.5C187.8 38.5 189.5 36.9 191.7 35.8C193.9 34.7 196.3 34.1 198.9 34.1C201.4 34.1 203.6 34.6 205.5 35.4C207.4 36.3 209 37.5 210.3 39.2L204.9 44C203.3 42 201.5 41 199.4 41C197.6 41 196.2 41.6 195.1 42.7C194 43.8 193.5 45.4 193.5 47.3C193.5 49.2 194 50.8 195.1 51.9C196.2 53.1 197.6 53.6 199.4 53.6C201.5 53.6 203.4 52.6 205 50.7L210.4 55.5C209.1 57.1 207.5 58.4 205.6 59.2C203.7 60.1 201.5 60.5 199 60.5C196.1 60.7 193.7 60.1 191.5 59Z" fill="currentColor"/>
<path d="M40.6 0.600006L32.2 25.9H25.9L20.4 8.70001L14.6 25.8H8.29998L0.0999756 0.399994H6.19997L11.8 18.2L17.9 0.399994H23.3L29 18.4L35 0.5L40.6 0.600006Z"/>
<path d="M50.9 24.7C48.8 23.6 47.1 22 46 20C44.8 18 44.2 15.8 44.2 13.3C44.2 10.8 44.8 8.60001 46 6.60001C47.2 4.60001 48.9 3.09999 51 1.89999C53.1 0.799994 55.5 0.200012 58.1 0.200012C60.7 0.200012 63.1 0.799994 65.2 1.89999C67.3 2.99999 68.9 4.60001 70.1 6.60001C71.3 8.60001 71.8999 10.8 71.8999 13.3C71.8999 15.8 71.3 18 70.1 20C68.9 22 67.2 23.5 65.1 24.7C63 25.8 60.6 26.4 58 26.4C55.4 26.4 53 25.9 50.9 24.7ZM62.1 20.4C63.3 19.7 64.3 18.8 65 17.5C65.7 16.3 66 14.9 66.1 13.3C66.2 11.7 65.8 10.3 65.1 9.10001C64.4 7.90001 63.5 6.90001 62.3 6.20001C61.1 5.50001 59.7 5.20001 58.2 5.10001C56.7 5.10001 55.4 5.40001 54.1 6.10001C52.9 6.80001 51.9 7.7 51.2 9C50.5 10.2 50.2 11.6 50.1 13.2C50.1 14.8 50.4 16.2 51.1 17.4C51.8 18.6 52.6999 19.6 53.8999 20.3C55.0999 21 56.4999 21.3 57.8999 21.3C59.5999 21.5 60.9 21.1 62.1 20.4Z"/>
<path d="M94.6 26.2L89.7 19.1H89.4H84.3V26.2H78.4L78.5 0.899994H89.5C91.7 0.899994 93.7 1.3 95.3 2C96.9 2.8 98.2 3.80001 99.1 5.20001C100 6.60001 100.4 8.20001 100.4 10.1C100.4 12 99.9 13.6 99 15C98.1 16.4 96.8 17.4 95.1 18.1L100.7 26.3L94.6 26.2ZM93.2 6.79999C92.3 5.99999 90.9 5.60001 89.2 5.60001H84.4V14.4H89.2C91 14.4 92.3 14 93.2 13.3C94.1 12.5 94.6 11.4 94.6 10C94.6 8.6 94.2 7.49999 93.2 6.79999Z"/>
<path d="M117.6 16.3L114.2 19.8V26.2H108.4L108.5 0.899994H114.3L114.2 12.7L125.5 0.899994H132L121.5 12.1L132.6 26.2H125.8L117.6 16.3Z"/>
<path d="M139.5 1.10001H145.4L145.3 26.4H139.4L139.5 1.10001Z"/>
<path d="M177.9 1.20001L177.8 26.5H173L160.4 11.1L160.3 26.5H154.5L154.6 1.20001H159.5L172 16.6L172.1 1.20001H177.9Z"/>
<path d="M203.7 13.6H209.1V23.9C207.7 24.9 206.1 25.7 204.3 26.3C202.5 26.9 200.7 27.1 198.8 27.1C196.2 27.1 193.8 26.5 191.7 25.4C189.6 24.3 188 22.7 186.8 20.7C185.6 18.7 185 16.5 185 13.9C185 11.3 185.6 9.10001 186.8 7.20001C188 5.20001 189.7 3.70001 191.8 2.60001C193.9 1.50001 196.3 0.899994 199 0.899994C201.2 0.899994 203.2 1.3 205 2C206.8 2.8 208.3 3.79999 209.5 5.29999L205.7 8.79999C203.9 6.89999 201.7 5.89999 199.2 5.89999C197.6 5.89999 196.1 6.19999 194.9 6.89999C193.6 7.59999 192.7 8.50001 192 9.70001C191.3 10.9 190.9 12.3 190.9 13.9C190.9 15.5 191.2 16.9 191.9 18.1C192.6 19.3 193.6 20.3 194.8 21C196 21.7 197.5 22 199 22.1C200.7 22.1 202.2 21.8 203.6 21L203.7 13.6Z"/>
</svg>
